<svg xmlns="http://www.w3.org/2000/svg" xmlns:xlink="http://www.w3.org/1999/xlink" version="1.1" width="1000" height="1000" viewBox="0 0 1000 1000" xml:space="preserve">
<desc>Created with Fabric.js 3.5.0</desc>
<defs>
</defs>
<rect x="0" y="0" width="100%" height="100%" fill="#ffffff"/>
<g transform="matrix(1.3725 0 0 1.3725 500.0041 527.1448)" id="198735">
<g style="" vector-effect="non-scaling-stroke">
		<g transform="matrix(1 0 0 1 0 0)" clip-path="url(#CLIPPATH_1)">
<clipPath id="CLIPPATH_1">
	<path transform="matrix(1 0 0 1 0 0) translate(-480, -270)" id="g2a717c8034b_0_493.0" d="m 0 0 l 960 0 l 0 540 l -960 0 l 0 -540 z" stroke-linecap="round"/>
</clipPath>
<path style="stroke: none; stroke-width: 1; stroke-dasharray: none; stroke-linecap: square; stroke-dashoffset: 0; stroke-linejoin: miter; stroke-miterlimit: 10; is-custom-font: none; font-file-url: none; fill: rgb(255,255,255); fill-rule: evenodd; opacity: 1;" transform=" translate(-480, -270)" d="m 0 0 l 960 0 l 0 540 l -960 0 z" stroke-linecap="round"/>
</g>
		<g transform="matrix(1 0 0 1 -231.3717 -200.4844)" clip-path="url(#CLIPPATH_2)">
<clipPath id="CLIPPATH_2">
	<path transform="matrix(1 0 0 1 231.3718 200.4844) translate(-480, -270)" id="g2a717c8034b_0_493.0" d="m 0 0 l 960 0 l 0 540 l -960 0 l 0 -540 z" stroke-linecap="round"/>
</clipPath>
<path style="stroke: none; stroke-width: 1; stroke-dasharray: none; stroke-linecap: square; stroke-dashoffset: 0; stroke-linejoin: miter; stroke-miterlimit: 10; is-custom-font: none; font-file-url: none; fill: rgb(56,56,56); fill-rule: evenodd; opacity: 1;" transform=" translate(-248.6282, -69.5156)" d="m 248.51527 68.25689 c -0.68855286 0 -0.98979187 0.6132202 -0.98979187 1.215683 c 0 0.68852997 0.301239 1.3017502 0.98979187 1.3017502 c 0.602478 0 1.2157288 -0.6132202 1.2157288 -1.3017502 c 0 -0.60246277 -0.61325073 -1.215683 -1.2157288 -1.215683 z" stroke-linecap="round"/>
</g>
		<g transform="matrix(1 0 0 1 -231.3771 -194.6266)" clip-path="url(#CLIPPATH_3)">
<clipPath id="CLIPPATH_3">
	<path transform="matrix(1 0 0 1 231.3771 194.6267) translate(-480, -270)" id="g2a717c8034b_0_493.0" d="m 0 0 l 960 0 l 0 540 l -960 0 l 0 -540 z" stroke-linecap="round"/>
</clipPath>
<path style="stroke: none; stroke-width: 1; stroke-dasharray: none; stroke-linecap: square; stroke-dashoffset: 0; stroke-linejoin: miter; stroke-miterlimit: 10; is-custom-font: none; font-file-url: none; fill: rgb(56,56,56); fill-rule: evenodd; opacity: 1;" transform=" translate(-248.6229, -75.3733)" d="m 248.51529 74.57184 c 0.602478 0 0.9144745 0.31198883 0.9144745 0.6132202 c 0 0.68852997 -0.31199646 0.98976135 -0.9144745 0.98976135 c -0.38731384 0 -0.68855286 -0.30123138 -0.68855286 -0.98976135 c 0 -0.30123138 0.301239 -0.6132202 0.68855286 -0.6132202 z m 0 -0.60246277 c -0.68855286 0 -1.3017883 0.60246277 -1.3017883 1.215683 c 0 0.98976135 0.6132355 1.5922241 1.3017883 1.5922241 c 0.9144745 0 1.5169525 -0.60246277 1.5169525 -1.5922241 c 0 -0.6132202 -0.602478 -1.215683 -1.5169525 -1.215683 z" stroke-linecap="round"/>
</g>
		<g transform="matrix(1 0 0 1 -214.1436 24.1126)" clip-path="url(#CLIPPATH_4)">
<clipPath id="CLIPPATH_4">
	<path transform="matrix(1 0 0 1 214.1437 -24.1126) translate(-480, -270)" id="g2a717c8034b_0_493.0" d="m 0 0 l 960 0 l 0 540 l -960 0 l 0 -540 z" stroke-linecap="round"/>
</clipPath>
<path style="stroke: none; stroke-width: 1; stroke-dasharray: none; stroke-linecap: square; stroke-dashoffset: 0; stroke-linejoin: miter; stroke-miterlimit: 10; is-custom-font: none; font-file-url: none; fill: rgb(253,202,73); fill-rule: evenodd; opacity: 1;" transform=" translate(-265.8563, -294.1126)" d="m 222.24744 185.67963 c -1.5470734 0 -3.105774 0.09541321 -4.676117 0.29814148 c -6.8280487 0.6678314 -16.785141 4.5555573 -19.832764 11.555847 c -3.4547424 8.097443 -5.839325 17.971786 -7.246811 26.748993 c -2.7102814 18.639618 -2.3845825 36.52794 -2.0472565 55.50145 c 0.73283386 17.303955 -0.98872375 39.068085 -0.6630249 56.610535 c 0.32569885 23.541016 0.32569885 41.84674 2.0588837 64.04016 c 0.32569885 1.0136719 6.50235 1.681488 7.57251 1.681488 c 2.2682648 0.17889404 4.5481567 0.23852539 6.8164215 0.23852539 c 4.64122 0 9.270813 -0.23852539 13.853867 -0.23852539 c 2.9545593 0 5.885849 0.09542847 8.782242 0.4293213 c 0.3373413 -22.19342 0.988739 -44.291443 1.407486 -66.48486 c 0.3257141 -15.443573 0.3257141 -31.304565 2.3845978 -46.736206 c 1.3144226 -13.332733 2.3845825 -26.748993 3.3733063 -39.735886 c 0 -2.444748 -0.33732605 -5.65271 0.407135 -7.7635345 c 0.3024292 -1.4072113 1.291153 -1.8126831 2.5474243 -1.8126831 c 1.5354462 0 3.4431152 0.62013245 4.9436493 0.79901123 c 6.165039 1.4310608 12.015991 3.5418854 17.855316 5.235321 c 13.737549 4.972946 28.475433 8.860672 42.876007 10.542175 c -0.3373413 0.7632141 -0.7444458 1.4310608 -0.7444458 2.1108093 l 0 1.097168 c 0.7444458 9.874329 1.0701294 19.319366 1.3958435 29.193695 c 0 2.778656 2.7219238 24.972107 2.7219238 31.972382 c 0 1.0136719 1.0701599 1.7649841 2.0588684 1.7649841 c 1.4423828 -0.45315552 3.1988525 -0.5843506 4.990204 -0.5843506 c 2.4892578 0 5.059967 0.25042725 7.0257874 0.25042725 c 6.165039 -0.41738892 12.341675 -0.7632141 18.506714 -1.4310608 c 0.7444458 0 1.4074707 -0.3458252 1.7331848 -0.67974854 c 0.6513977 -0.41738892 0.6513977 -1.0971375 0.6513977 -1.7649841 c 3.7920532 -22.873169 3.4663696 -44.291443 1.7331848 -67.83247 c -0.6630249 -9.540421 0.3256836 -23.958405 -8.886932 -29.19371 c -10.945831 -7.0837708 -26.416565 -8.777206 -39.083954 -11.985168 c -9.957092 -2.778656 -19.914185 -5.2233887 -29.464172 -9.1111145 c -7.8981934 -3.196045 -15.145004 -7.0837708 -23.043228 -10.208267 c -6.3976593 -2.6116943 -13.062866 -4.5078583 -20.007248 -4.5078583 z" stroke-linecap="round"/>
</g>
		<g transform="matrix(1 0 0 1 -267.6614 -200.9958)" clip-path="url(#CLIPPATH_5)">
<clipPath id="CLIPPATH_5">
	<path transform="matrix(1 0 0 1 267.6614 200.9958) translate(-480, -270)" id="g2a717c8034b_0_493.0" d="m 0 0 l 960 0 l 0 540 l -960 0 l 0 -540 z" stroke-linecap="round"/>
</clipPath>
<path style="stroke: none; stroke-width: 1; stroke-dasharray: none; stroke-linecap: square; stroke-dashoffset: 0; stroke-linejoin: miter; stroke-miterlimit: 10; is-custom-font: none; font-file-url: none; fill: rgb(56,56,56); fill-rule: evenodd; opacity: 1;" transform=" translate(-212.3386, -69.0042)" d="m 219.24089 47.521137 c 6.4657288 0 12.786346 2.9626389 16.107895 7.0184402 c 2.4830933 3.1052208 2.1283722 10.472202 1.1125641 12.579319 l -13.560303 23.019844 l -20.961243 0 l -0.33859253 -4.182541 l -3.1603088 4.53109 l -10.996597 -1.4258728 c 0.6772156 -4.198387 4.6114807 -5.956955 7.417053 -9.046333 c 2.8055878 -3.5171432 -0.6772003 -4.53109 -1.7897644 -8.048233 c -1.0158081 -3.849846 3.5795288 -5.196495 5.0307007 -7.699684 c 1.709137 -2.4398193 2.1283722 -6.289665 3.8375092 -9.046341 c 2.9023285 -4.198387 9.964645 -6.2896614 9.964645 -6.2896614 c 2.3702393 -0.96642303 4.869461 -1.4100266 7.336441 -1.4100266 z" stroke-linecap="round"/>
</g>
		<g transform="matrix(1 0 0 1 -270.7324 -227.3509)" clip-path="url(#CLIPPATH_6)">
<clipPath id="CLIPPATH_6">
	<path transform="matrix(1 0 0 1 270.7324 227.3509) translate(-480, -270)" id="g2a717c8034b_0_493.0" d="m 0 0 l 960 0 l 0 540 l -960 0 l 0 -540 z" stroke-linecap="round"/>
</clipPath>
<path style="stroke: none; stroke-width: 1; stroke-dasharray: none; stroke-linecap: square; stroke-dashoffset: 0; stroke-linejoin: miter; stroke-miterlimit: 10; is-custom-font: none; font-file-url: none; fill: rgb(56,56,56); fill-rule: evenodd; opacity: 1;" transform=" translate(-209.2676, -42.6491)" d="m 209.43687 34.608765 c 4.6114807 0 8.1910095 3.5171394 8.1910095 8.048229 c 0 4.515251 -3.5795288 8.032391 -8.1910095 8.032391 c -4.595337 0 -8.529602 -3.5171394 -8.529602 -8.032391 c 0 -4.53109 3.9342651 -8.048229 8.529602 -8.048229 z" stroke-linecap="round"/>
</g>
		<g transform="matrix(1 0 0 1 -35.5557 -18.2623)" clip-path="url(#CLIPPATH_7)">
<clipPath id="CLIPPATH_7">
	<path transform="matrix(1 0 0 1 35.5558 18.2623) translate(-480, -270)" id="g2a717c8034b_0_493.0" d="m 0 0 l 960 0 l 0 540 l -960 0 l 0 -540 z" stroke-linecap="round"/>
</clipPath>
<path style="stroke: none; stroke-width: 1; stroke-dasharray: none; stroke-linecap: square; stroke-dashoffset: 0; stroke-linejoin: miter; stroke-miterlimit: 10; is-custom-font: none; font-file-url: none; fill: rgb(227,132,34); fill-rule: evenodd; opacity: 1;" transform=" translate(-444.4442, -251.7377)" d="m 410.397 211.93484 c 2.3755798 -2.2956848 4.9929504 -4.381317 7.9223022 -6.1808167 c 18.375458 -12.073227 45.54138 -15.336792 62.76657 -1.6068573 c 18.753235 15.131348 14.035675 46.588318 9.281647 66.364334 c -2.569336 11.428955 -7.0119324 21.945984 -14.275116 28.964935 c -7.064728 6.827118 -16.784058 10.343445 -30.033295 8.169037 c -21.169586 -3.550415 -40.136932 -17.803314 -47.77661 -36.539185 c -7.824524 -18.917023 -4.0914917 -41.60379 9.970062 -56.979218 c 0.6873474 -0.7481537 1.4063416 -1.4789581 2.1444397 -2.1922302 z" stroke-linecap="round"/>
</g>
		<g transform="matrix(1 0 0 1 138.6883 61.9181)" clip-path="url(#CLIPPATH_8)">
<clipPath id="CLIPPATH_8">
	<path transform="matrix(1 0 0 1 -138.6882 -61.9181) translate(-480, -270)" id="g2a717c8034b_0_493.0" d="m 0 0 l 960 0 l 0 540 l -960 0 l 0 -540 z" stroke-linecap="round"/>
</clipPath>
<path style="stroke: none; stroke-width: 1; stroke-dasharray: none; stroke-linecap: square; stroke-dashoffset: 0; stroke-linejoin: miter; stroke-miterlimit: 10; is-custom-font: none; font-file-url: none; fill: rgb(253,202,73); fill-rule: evenodd; opacity: 1;" transform=" translate(-618.6882, -331.9181)" d="m 467.6081 462.69296 c -2.1837158 -7.6721497 -2.8640442 -15.713501 -1.7932129 -23.66513 c 3.778473 -29.613373 29.49826 -51.78531 43.90869 -78.475006 c 19.603394 -35.951874 9.339294 -74.14679 19.752258 -111.40048 c 9.00946 -32.41707 29.907715 -62.809143 60.27423 -80.818344 c 15.734619 -9.574905 36.859497 -16.117233 58.330017 -17.702667 c 22.490723 -1.4817505 45.037476 2.547821 61.58075 14.339279 c 27.7901 20.205856 46.303406 52.42894 55.512207 84.782974 c 2.1916504 7.700241 3.864441 15.411026 4.992859 22.968307 c 0.5402832 4.256012 1.161499 8.571808 1.3389893 12.638519 c 2.104248 24.87027 -1.5684204 50.62622 -14.549072 72.272125 c -14.277039 23.677704 -32.973267 38.75299 -56.12329 54.309998 c -26.600708 17.991852 -47.398865 42.111206 -71.68182 62.707275 c -23.976074 20.588898 -53.444275 38.31131 -85.920166 38.842255 c -20.955261 0.2520752 -42.25827 -7.0796204 -57.088745 -20.787323 c -8.901062 -8.294128 -15.332733 -18.765533 -18.533691 -30.01178 z" stroke-linecap="round"/>
</g>
		<g transform="matrix(1 0 0 1 164.1841 -146.4934)" clip-path="url(#CLIPPATH_9)">
<clipPath id="CLIPPATH_9">
	<path transform="matrix(1 0 0 1 -164.184 146.4933) translate(-480, -270)" id="g2a717c8034b_0_493.0" d="m 0 0 l 960 0 l 0 540 l -960 0 l 0 -540 z" stroke-linecap="round"/>
</clipPath>
<path style="stroke: none; stroke-width: 1; stroke-dasharray: none; stroke-linecap: square; stroke-dashoffset: 0; stroke-linejoin: miter; stroke-miterlimit: 10; is-custom-font: none; font-file-url: none; fill: rgb(171,200,244); fill-rule: evenodd; opacity: 1;" transform=" translate(-644.184, -123.5067)" d="m 507.43008 31.243923 c -3.6908875 -1.6018085 -7.639801 0.02580452 -9.528046 4.5994606 l -17.569122 42.55491 c -1.1493835 2.783966 0.4597168 6.823715 4.1505737 8.425522 l 297.04965 128.9173 c 3.690857 1.6018066 7.5963745 -0.044662476 8.745728 -2.8286285 l 17.569153 -42.5549 c 1.3135376 -3.1816711 0.3225708 -8.594559 -3.3682861 -10.196365 z" stroke-linecap="round"/>
</g>
		<g transform="matrix(1 0 0 1 120.8963 -40.9996)" clip-path="url(#CLIPPATH_10)">
<clipPath id="CLIPPATH_10">
	<path transform="matrix(1 0 0 1 -120.8963 40.9996) translate(-480, -270)" id="g2a717c8034b_0_493.0" d="m 0 0 l 960 0 l 0 540 l -960 0 l 0 -540 z" stroke-linecap="round"/>
</clipPath>
<path style="stroke: none; stroke-width: 1; stroke-dasharray: none; stroke-linecap: square; stroke-dashoffset: 0; stroke-linejoin: miter; stroke-miterlimit: 10; is-custom-font: none; font-file-url: none; fill: rgb(14,42,71); fill-rule: evenodd; opacity: 1;" transform=" translate(-600.8963, -229.0004)" d="m 489.48688 56.22605 l -87.1272 211.03458 l 309.94598 134.51419 l 87.1272 -211.03456 z" stroke-linecap="round"/>
</g>
		<g transform="matrix(1 0 0 1 149.9006 -116.5337)" clip-path="url(#CLIPPATH_11)">
<clipPath id="CLIPPATH_11">
	<path transform="matrix(1 0 0 1 -149.9006 116.5336) translate(-480, -270)" id="g2a717c8034b_0_493.0" d="m 0 0 l 960 0 l 0 540 l -960 0 l 0 -540 z" stroke-linecap="round"/>
</clipPath>
<path style="stroke: none; stroke-width: 1; stroke-dasharray: none; stroke-linecap: square; stroke-dashoffset: 0; stroke-linejoin: miter; stroke-miterlimit: 10; is-custom-font: none; font-file-url: none; fill: rgb(249,249,249); fill-rule: evenodd; opacity: 1;" transform=" translate(-629.9006, -153.4664)" d="m 543.45123 112.4155 c -1.2158203 -0.52765656 -3.0063477 0.33666992 -3.7452393 2.1263657 c -0.574646 1.391983 0.066467285 3.3116226 1.2822876 3.8392715 l 175.42474 76.13301 c 1.2157593 0.5276489 3.0062866 -0.33666992 3.5809937 -1.728653 c 0.7388916 -1.7897034 0.09777832 -3.7093353 -1.118042 -4.2369843 z" stroke-linecap="round"/>
</g>
		<g transform="matrix(1 0 0 1 137.3497 -85.8725)" clip-path="url(#CLIPPATH_12)">
<clipPath id="CLIPPATH_12">
	<path transform="matrix(1 0 0 1 -137.3497 85.8724) translate(-480, -270)" id="g2a717c8034b_0_493.0" d="m 0 0 l 960 0 l 0 540 l -960 0 l 0 -540 z" stroke-linecap="round"/>
</clipPath>
<path style="stroke: none; stroke-width: 1; stroke-dasharray: none; stroke-linecap: square; stroke-dashoffset: 0; stroke-linejoin: miter; stroke-miterlimit: 10; is-custom-font: none; font-file-url: none; fill: rgb(249,249,249); fill-rule: evenodd; opacity: 1;" transform=" translate(-617.3497, -184.1276)" d="m 530.6643 143.38718 c -1.2158203 -0.5276489 -2.4316406 -1.0553131 -3.5809937 1.728653 c -0.57470703 1.391983 0.045898438 3.3613434 1.2617188 3.8889923 l 175.42474 76.13301 c 1.2158203 0.5276489 3.0268555 -0.38638306 3.6015625 -1.7783661 c 1.149353 -2.783966 -0.066467285 -3.3116302 -1.2822876 -3.8392792 z" stroke-linecap="round"/>
</g>
		<g transform="matrix(1 0 0 1 125.1287 -56.3831)" clip-path="url(#CLIPPATH_13)">
<clipPath id="CLIPPATH_13">
	<path transform="matrix(1 0 0 1 -125.1287 56.3831) translate(-480, -270)" id="g2a717c8034b_0_493.0" d="m 0 0 l 960 0 l 0 540 l -960 0 l 0 -540 z" stroke-linecap="round"/>
</clipPath>
<path style="stroke: none; stroke-width: 1; stroke-dasharray: none; stroke-linecap: square; stroke-dashoffset: 0; stroke-linejoin: miter; stroke-miterlimit: 10; is-custom-font: none; font-file-url: none; fill: rgb(249,249,249); fill-rule: evenodd; opacity: 1;" transform=" translate(-605.1287, -213.6169)" d="m 518.61633 172.56917 c -1.2158203 -0.5276642 -3.0063477 0.33666992 -3.5809937 1.728653 c -0.7388916 1.7896881 -0.09777832 3.7093353 1.118042 4.2369843 l 175.42474 76.13301 c 1.2157593 0.5276489 3.0062866 -0.33668518 3.7451782 -2.1263733 c 0.57470703 -1.391983 -0.06640625 -3.311615 -1.2822266 -3.8392792 z" stroke-linecap="round"/>
</g>
		<g transform="matrix(1 0 0 1 112.9862 -27.1842)" clip-path="url(#CLIPPATH_14)">
<clipPath id="CLIPPATH_14">
	<path transform="matrix(1 0 0 1 -112.9862 27.1842) translate(-480, -270)" id="g2a717c8034b_0_493.0" d="m 0 0 l 960 0 l 0 540 l -960 0 l 0 -540 z" stroke-linecap="round"/>
</clipPath>
<path style="stroke: none; stroke-width: 1; stroke-dasharray: none; stroke-linecap: square; stroke-dashoffset: 0; stroke-linejoin: miter; stroke-miterlimit: 10; is-custom-font: none; font-file-url: none; fill: rgb(249,249,249); fill-rule: evenodd; opacity: 1;" transform=" translate(-592.9862, -242.8158)" d="m 506.56833 201.75114 c -1.2158203 -0.5276489 -3.149994 0.6846771 -3.7452087 2.1263733 c -0.57470703 1.391983 0.06640625 3.311615 1.2822266 3.8392792 l 175.42474 76.132996 c 1.2158203 0.5276489 3.0063477 -0.33666992 3.5809937 -1.7286377 c 0.59521484 -1.4417114 0.09777832 -3.7093506 -1.118042 -4.2369995 z" stroke-linecap="round"/>
</g>
		<g transform="matrix(1 0 0 1 31.2969 -170.0511)" clip-path="url(#CLIPPATH_15)">
<clipPath id="CLIPPATH_15">
	<path transform="matrix(1 0 0 1 -31.2969 170.0511) translate(-480, -270)" id="g2a717c8034b_0_493.0" d="m 0 0 l 960 0 l 0 540 l -960 0 l 0 -540 z" stroke-linecap="round"/>
</clipPath>
<path style="stroke: none; stroke-width: 1; stroke-dasharray: none; stroke-linecap: square; stroke-dashoffset: 0; stroke-linejoin: miter; stroke-miterlimit: 10; is-custom-font: none; font-file-url: none; fill: rgb(249,249,249); fill-rule: evenodd; opacity: 1;" transform=" translate(-511.2969, -99.9489)" d="m 511.48383 84.17966 c -0.7815857 -0.3392105 -1.7999878 0.39123535 -2.2104797 1.3855133 c -1.2158203 -0.52765656 -2.3652039 2.2563095 -1.1493835 2.783966 l 8.524536 16.18592 l -17.678558 5.986374 c -1.2158203 -0.5276489 -2.3857117 2.3060303 -1.7445984 4.22567 l 2.4316406 1.0553055 l 25.893066 -7.404167 l -13.270386 -23.169746 c -0.16265869 -0.5981827 -0.4484558 -0.8980789 -0.7958374 -1.0488358 z" stroke-linecap="round"/>
</g>
		<g transform="matrix(1 0 0 1 -138.6113 58.215)" clip-path="url(#CLIPPATH_16)">
<clipPath id="CLIPPATH_16">
	<path transform="matrix(1 0 0 1 138.6113 -58.215) translate(-480, -270)" id="g2a717c8034b_0_493.0" d="m 0 0 l 960 0 l 0 540 l -960 0 l 0 -540 z" stroke-linecap="round"/>
</clipPath>
<path style="stroke: none; stroke-width: 1; stroke-dasharray: none; stroke-linecap: square; stroke-dashoffset: 0; stroke-linejoin: miter; stroke-miterlimit: 10; is-custom-font: none; font-file-url: none; fill: rgb(56,56,56); fill-rule: evenodd; opacity: 1;" transform=" translate(-341.3887, -328.215)" d="m 335.38446 319.61063 c -0.6630554 0 -1.7332153 0 -2.3962708 0.33392334 c -4.7692566 0.6678467 -9.21283 1.4310913 -14.063507 2.4447632 c 0.7328491 2.7905884 1.0701599 5.6527405 0.7328491 8.777283 l 0 3.875824 c 0.3373108 1.097168 0.988739 1.7769165 2.058899 1.7769165 l 35.3042 0 c 1.3144531 0 2.7219849 -0.3458252 4.443573 -0.3458252 c 0.988739 0 2.384613 -0.75131226 2.384613 -2.098938 c 0.3373413 -5.998596 -21.554749 -10.2083435 -25.346893 -12.998932 c -1.0701599 -0.7632446 -2.0589294 -1.4310913 -3.1174622 -1.7650146 z" stroke-linecap="round"/>
</g>
		<g transform="matrix(1 0 0 1 -253.9801 -188.9132)" clip-path="url(#CLIPPATH_17)">
<clipPath id="CLIPPATH_17">
	<path transform="matrix(1 0 0 1 253.9801 188.9133) translate(-480, -270)" id="g2a717c8034b_0_493.0" d="m 0 0 l 960 0 l 0 540 l -960 0 l 0 -540 z" stroke-linecap="round"/>
</clipPath>
<path style="stroke: none; stroke-width: 1; stroke-dasharray: none; stroke-linecap: square; stroke-dashoffset: 0; stroke-linejoin: miter; stroke-miterlimit: 10; is-custom-font: none; font-file-url: none; fill: rgb(247,144,143); fill-rule: evenodd; opacity: 1;" transform=" translate(-226.0199, -81.0867)" d="m 218.4472 59.089874 c -0.66304016 0 -1.3144531 0 -1.6517944 0.33391953 c -0.73283386 0.4293213 -0.73283386 1.7769203 -0.73283386 2.8740807 c 0 1.7649994 0.32569885 3.4584427 0.73283386 5.2234344 l 0 1.4430084 c 0.6630554 3.8758316 0 7.751671 -0.407135 11.555954 c 0 0.763237 -0.32569885 1.7649918 -0.32569885 2.1108398 c 0 2.1108398 0 3.8758392 0.73283386 5.986679 c 0.6630554 4.5555954 4.780899 13.750275 10.294632 14.430038 c 0.093063354 0.023849487 0.18612671 0.03577423 0.2791748 0.03577423 c 1.2330322 0 2.5009613 -1.8842545 3.4199219 -2.8263779 c 2.4660492 -3.2080002 4.5249786 -7.0838394 5.188019 -11.305519 c 0 -2.1108398 0 -4.209755 -0.3373413 -5.9031982 c -0.32569885 -3.2080002 -0.32569885 -5.986679 -0.73283386 -8.860756 c 0 -1.3476028 -0.3373413 -2.778679 -0.3373413 -4.209755 c -0.65141296 -2.456688 -1.7215881 -4.9014435 -3.3733826 -6.666443 c -3.1174622 -3.8877602 -8.22406 -4.2216797 -12.749054 -4.2216797 z" stroke-linecap="round"/>
</g>
		<g transform="matrix(1 0 0 1 -255.0457 -201.0059)" clip-path="url(#CLIPPATH_18)">
<clipPath id="CLIPPATH_18">
	<path transform="matrix(1 0 0 1 255.0457 201.0059) translate(-480, -270)" id="g2a717c8034b_0_493.0" d="m 0 0 l 960 0 l 0 540 l -960 0 l 0 -540 z" stroke-linecap="round"/>
</clipPath>
<path style="stroke: none; stroke-width: 1; stroke-dasharray: none; stroke-linecap: square; stroke-dashoffset: 0; stroke-linejoin: miter; stroke-miterlimit: 10; is-custom-font: none; font-file-url: none; fill: rgb(56,56,56); fill-rule: evenodd; opacity: 1;" transform=" translate(-224.9543, -68.9941)" d="m 223.97258 61.689594 c -1.7797546 0 -3.4780731 0.62013626 -4.780899 1.9558067 c -0.3373413 0.41739655 -0.7444763 0.7632446 -1.0701752 1.0971603 c -0.3373413 0.3339157 -0.9887543 0.3339157 -1.3260956 0.6797638 c -0.73283386 0.3339157 -0.407135 1.0852356 -0.407135 1.431076 c 0.407135 1.431076 0.407135 3.1245193 0.7444763 4.555603 c 0 1.431076 -0.3373413 3.2080002 -0.3373413 4.889511 c 0 0 7.8169403 -1.3475952 10.946045 -2.4447556 c 1.7332153 -0.3339157 3.7921448 -1.0136795 5.851074 -1.7769241 l 0 -1.0017548 c 0 -1.0971603 -0.7444763 -2.1108398 -1.0701752 -3.2080002 c -0.66304016 -1.0136795 -0.9887543 -1.6934433 -1.7332153 -2.7906036 c -0.9887543 -1.0136795 -2.3846436 -2.110836 -3.6990967 -2.7786713 c -1.0236511 -0.40547562 -2.0938263 -0.6082115 -3.1174622 -0.6082115 z" stroke-linecap="round"/>
</g>
		<g transform="matrix(1 0 0 1 -242.1009 -221.6189)" clip-path="url(#CLIPPATH_19)">
<clipPath id="CLIPPATH_19">
	<path transform="matrix(1 0 0 1 242.1009 221.6189) translate(-480, -270)" id="g2a717c8034b_0_493.0" d="m 0 0 l 960 0 l 0 540 l -960 0 l 0 -540 z" stroke-linecap="round"/>
</clipPath>
<path style="stroke: none; stroke-width: 1; stroke-dasharray: none; stroke-linecap: square; stroke-dashoffset: 0; stroke-linejoin: miter; stroke-miterlimit: 10; is-custom-font: none; font-file-url: none; fill: rgb(56,56,56); fill-rule: evenodd; opacity: 1;" transform=" translate(-237.8991, -48.3811)" d="m 236.3838 40.46251 c -0.38386536 0 -0.74446106 0.119255066 -1.0701752 0.4054718 c -1.395874 1.0136795 0.6630554 5.2234344 1.3144684 6.666439 c 1.0701752 2.1108398 0.74446106 4.209755 1.0701752 6.320595 c 0 0.6797638 0 1.3595238 0.33732605 1.7769203 c 0.3257141 0.33391953 0.9771271 0.66783905 1.7215881 0.66783905 c 0.6630554 -0.33391953 0.6630554 -1.0852356 0.9887543 -1.7649956 l 0 -3.1245232 c 0.3257141 -2.5282364 0.3257141 -5.31884 -0.32569885 -7.7635994 c -0.5350952 -1.1448631 -2.4544373 -3.184147 -4.036438 -3.184147 z" stroke-linecap="round"/>
</g>
		<g transform="matrix(1 0 0 1 -239.4788 -212.9075)" clip-path="url(#CLIPPATH_20)">
<clipPath id="CLIPPATH_20">
	<path transform="matrix(1 0 0 1 239.4788 212.9075) translate(-480, -270)" id="g2a717c8034b_0_493.0" d="m 0 0 l 960 0 l 0 540 l -960 0 l 0 -540 z" stroke-linecap="round"/>
</clipPath>
<path style="stroke: none; stroke-width: 1; stroke-dasharray: none; stroke-linecap: square; stroke-dashoffset: 0; stroke-linejoin: miter; stroke-miterlimit: 10; is-custom-font: none; font-file-url: none; fill: rgb(247,144,143); fill-rule: evenodd; opacity: 1;" transform=" translate(-240.5212, -57.0925)" d="m 239.85016 52.53094 c -1.0701752 0 -2.0589294 0.69168854 -2.4776917 2.337429 l 1.6401672 6.666439 c 0.290802 0.083480835 0.5467224 0.119255066 0.80262756 0.119255066 c 1.0236511 0 1.8728027 -0.59627914 2.663803 -1.1329346 c 1.0701752 -1.4310799 1.3958893 -3.2080002 1.0701752 -4.8895187 c -0.61650085 -1.8484764 -2.245041 -3.1006699 -3.6990814 -3.1006699 z" stroke-linecap="round"/>
</g>
		<g transform="matrix(1 0 0 1 -252.9018 -212.0366)" clip-path="url(#CLIPPATH_21)">
<clipPath id="CLIPPATH_21">
	<path transform="matrix(1 0 0 1 252.9019 212.0366) translate(-480, -270)" id="g2a717c8034b_0_493.0" d="m 0 0 l 960 0 l 0 540 l -960 0 l 0 -540 z" stroke-linecap="round"/>
</clipPath>
<path style="stroke: none; stroke-width: 1; stroke-dasharray: none; stroke-linecap: square; stroke-dashoffset: 0; stroke-linejoin: miter; stroke-miterlimit: 10; is-custom-font: none; font-file-url: none; fill: rgb(247,144,143); fill-rule: evenodd; opacity: 1;" transform=" translate(-227.0981, -57.9634)" d="m 235.4538 40.927597 c -2.8964539 0 -8.072845 3.4465141 -10.422592 3.732727 c -2.4660492 0.7632408 -6.583908 1.4310799 -8.642838 3.2080002 c -3.6990814 4.2216797 -3.0476685 11.555958 -0.66304016 16.874794 c 0.3373413 0.6797638 1.4075165 3.124527 1.7332153 3.8758392 c 3.1523743 4.841812 8.072861 6.380226 11.91153 6.380226 c 1.1865082 0 2.2566833 -0.14311218 3.1523743 -0.3816223 c 4.4435577 -1.0971603 6.909607 -4.9849243 7.56102 -10.208359 c 0 -0.7632408 0.3373413 -3.8877602 0.3373413 -4.9849205 c 0 -5.9031982 -1.4075165 -16.874798 -3.7921448 -18.222397 c -0.31407166 -0.19081116 -0.72120667 -0.27428818 -1.1748657 -0.27428818 z" stroke-linecap="round"/>
</g>
		<g transform="matrix(1 0 0 1 -254.4581 -222.4714)" clip-path="url(#CLIPPATH_22)">
<clipPath id="CLIPPATH_22">
	<path transform="matrix(1 0 0 1 254.4581 222.4714) translate(-480, -270)" id="g2a717c8034b_0_493.0" d="m 0 0 l 960 0 l 0 540 l -960 0 l 0 -540 z" stroke-linecap="round"/>
</clipPath>
<path style="stroke: none; stroke-width: 1; stroke-dasharray: none; stroke-linecap: square; stroke-dashoffset: 0; stroke-linejoin: miter; stroke-miterlimit: 10; is-custom-font: none; font-file-url: none; fill: rgb(56,56,56); fill-rule: evenodd; opacity: 1;" transform=" translate(-225.5419, -47.5286)" d="m 224.17049 34.6191 c -1.1166992 0 -2.2217712 0.08347702 -3.2570496 0.26236343 c -2.7917633 0.66783524 -5.513733 2.098915 -7.5726624 4.555599 c -2.3846283 3.1125946 -3.4548035 7.751671 -2.3846283 11.973354 c 0.32569885 2.7905998 1.3144531 7.346199 4.4435577 8.777279 c 0.4303894 0.16695786 0.8375244 0.2504387 1.2097626 0.2504387 c 1.1166992 0 1.9425964 -0.7751694 2.245041 -2.3612785 c 0.3373413 -2.1108398 0 -4.555599 0 -7.0838394 c 0 -0.3339157 0 -0.3339157 0.3373413 -0.67976 c 0.32569885 -0.33391953 0.65141296 -0.33391953 0.9771118 -0.33391953 c 5.188034 -0.67976 9.305878 -3.2080002 13.423737 -6.3325195 c 0.9771118 1.0136795 2.047287 1.7769203 3.3733826 2.1108398 c 0.73283386 0 1.7215881 0 2.4660492 -0.33391953 c 0.9887543 -0.3339157 1.3144684 -1.0971603 0.9887543 -2.1108398 c 0 -0.7632408 -0.3373413 -1.4310799 -0.9887543 -2.1108398 c -1.0701752 -1.7649956 -2.4660492 -2.862156 -3.7921448 -3.8758354 c -2.3846283 -1.4430046 -5.1763916 -2.1108437 -8.22406 -2.4447594 c -1.0236511 -0.17888641 -2.1403656 -0.26236343 -3.2454376 -0.26236343 z" stroke-linecap="round"/>
</g>
		<g transform="matrix(1 0 0 1 -264.3906 -210.9279)" clip-path="url(#CLIPPATH_23)">
<clipPath id="CLIPPATH_23">
	<path transform="matrix(1 0 0 1 264.3906 210.9279) translate(-480, -270)" id="g2a717c8034b_0_493.0" d="m 0 0 l 960 0 l 0 540 l -960 0 l 0 -540 z" stroke-linecap="round"/>
</clipPath>
<path style="stroke: none; stroke-width: 1; stroke-dasharray: none; stroke-linecap: square; stroke-dashoffset: 0; stroke-linejoin: miter; stroke-miterlimit: 10; is-custom-font: none; font-file-url: none; fill: rgb(247,144,143); fill-rule: evenodd; opacity: 1;" transform=" translate(-215.6094, -59.0721)" d="m 215.2601 53.938133 c -4.210907 0 -5.060074 6.559105 -2.245041 9.373562 c 0.5583496 0.59627914 1.2446594 0.8944206 1.9542389 0.8944206 c 0.9771118 0 2.0123901 -0.54858017 2.8150177 -1.5741844 l 2.0589294 -5.31884 c -0.9887543 -1.347599 -1.7215881 -2.778679 -3.0476685 -3.1125946 c -0.5467224 -0.17888641 -1.058548 -0.26236343 -1.5354767 -0.26236343 z" stroke-linecap="round"/>
</g>
		<g transform="matrix(1 0 0 1 -252.3952 -132.8634)" clip-path="url(#CLIPPATH_24)">
<clipPath id="CLIPPATH_24">
	<path transform="matrix(1 0 0 1 252.3952 132.8633) translate(-480, -270)" id="g2a717c8034b_0_493.0" d="m 0 0 l 960 0 l 0 540 l -960 0 l 0 -540 z" stroke-linecap="round"/>
</clipPath>
<path style="stroke: none; stroke-width: 1; stroke-dasharray: none; stroke-linecap: square; stroke-dashoffset: 0; stroke-linejoin: miter; stroke-miterlimit: 10; is-custom-font: none; font-file-url: none; fill: rgb(14,42,71); fill-rule: evenodd; opacity: 1;" transform=" translate(-227.6048, -137.1367)" d="m 216.06364 82.28464 c -4.4435577 1.4430084 -8.8871155 1.0971603 -13.668015 1.7769241 c -3.1174622 0.3339157 -5.839432 1.431076 -9.294235 1.7769241 c -6.1767883 1.431076 -11.690521 5.986679 -14.400864 11.973351 c -1.395874 2.7906036 -2.3846283 5.5692825 -2.3846283 8.777283 c 0 2.4447556 0.3257141 5.2234344 0.65141296 7.6801224 c 1.4075165 9.194672 1.7332153 19.40303 5.188034 27.834473 c 1.3144531 3.7923584 3.7805023 7.3461914 6.176773 10.888107 c 0.9887543 1.7649994 2.0589294 3.4584503 3.3733826 4.8895264 c 0.6863098 0.32199097 2.8266602 2.4805298 3.6292877 2.4805298 c 0.058166504 0 0.10469055 -0.011917114 0.15122986 -0.0357666 l 0.32569885 0 c -0.65141296 4.2216797 -0.9771118 9.194672 -2.047287 13.750275 c -0.3373413 2.7906036 -2.0589294 7.000351 -0.3373413 9.790955 c 1.4075165 2.528244 5.513733 3.2079926 7.898361 3.541916 c 7.2469635 1.431076 14.400848 2.1108398 21.97351 3.2080078 c 6.1767883 0.6678314 12.516418 1.3714447 18.80951 1.3714447 c 6.293106 0 12.551315 -0.7036133 18.553604 -2.8025208 c 1.7332153 -0.6797638 3.7805176 -1.4430084 5.106598 -2.7906036 c 3.4548035 -3.5419312 1.395874 -12.319199 1.395874 -16.874802 c 0 -1.097168 0 -7.417755 -1.7332153 -7.417755 c 1.7332153 0 3.4548035 -0.34584045 4.862335 -1.0136871 c 3.0360413 -2.1108398 4.7692566 -5.986679 5.7579956 -9.874435 c 1.7215881 -5.6527557 3.1291199 -11.973358 2.7917786 -17.971954 c -0.3257141 -4.2097626 -1.0701904 -8.014038 -2.0473022 -11.889877 c -1.7332153 -7.42968 -4.8623047 -14.096115 -7.9100037 -20.416718 c -1.0701599 -2.1108398 -2.0472717 -4.2216797 -3.4548035 -5.9866714 c -4.106201 -5.5692825 -9.212799 -9.790962 -16.122437 -10.888123 c -4.4435577 -0.6797638 -9.224442 -0.3339157 -13.667999 -1.431076 c -0.3257141 4.639076 -4.4435577 8.097519 -8.549789 8.097519 c -4.1178436 0 -8.642838 -0.6797638 -10.294632 -4.555603 c -0.40711975 -1.0136795 -0.73283386 -2.4447556 -0.73283386 -3.887764 z" stroke-linecap="round"/>
</g>
		<g transform="matrix(1 0 0 1 -261.516 -121.8633)" clip-path="url(#CLIPPATH_25)">
<clipPath id="CLIPPATH_25">
	<path transform="matrix(1 0 0 1 261.5159 121.8633) translate(-480, -270)" id="g2a717c8034b_0_493.0" d="m 0 0 l 960 0 l 0 540 l -960 0 l 0 -540 z" stroke-linecap="round"/>
</clipPath>
<path style="stroke: none; stroke-width: 1; stroke-dasharray: none; stroke-linecap: square; stroke-dashoffset: 0; stroke-linejoin: miter; stroke-miterlimit: 10; is-custom-font: none; font-file-url: none; fill: rgb(247,144,143); fill-rule: evenodd; opacity: 1;" transform=" translate(-218.4841, -148.1367)" d="m 219.41338 133.83784 c -4.652939 0 -9.236084 0.4293213 -13.644745 1.9438782 c -7.479599 2.7786713 -14.7265625 9.445114 -14.7265625 17.876556 c -0.32569885 7.7635956 8.2357025 8.777267 13.749451 8.777267 c 4.4435577 -0.33390808 9.212814 -1.3475952 13.656372 -2.444748 c 7.898361 -2.1108398 16.122437 -4.2216797 24.358139 -6.666443 c 1.0701752 0 2.0589294 -0.33392334 3.1291046 -0.6797638 c -3.1291046 -2.5282288 -5.851074 -5.3069153 -8.561401 -7.7516785 c -2.0589294 -2.1108398 -4.524994 -3.8877563 -6.5839233 -5.998596 c -1.640152 -2.1108398 -3.3733826 -3.8758392 -5.758011 -4.889511 c -1.8844452 -0.09541321 -3.757248 -0.16696167 -5.6184235 -0.16696167 z" stroke-linecap="round"/>
</g>
		<g transform="matrix(1 0 0 1 -225.1381 -122.4119)" clip-path="url(#CLIPPATH_26)">
<clipPath id="CLIPPATH_26">
	<path transform="matrix(1 0 0 1 225.138 122.4119) translate(-480, -270)" id="g2a717c8034b_0_493.0" d="m 0 0 l 960 0 l 0 540 l -960 0 l 0 -540 z" stroke-linecap="round"/>
</clipPath>
<path style="stroke: none; stroke-width: 1; stroke-dasharray: none; stroke-linecap: square; stroke-dashoffset: 0; stroke-linejoin: miter; stroke-miterlimit: 10; is-custom-font: none; font-file-url: none; fill: rgb(247,144,143); fill-rule: evenodd; opacity: 1;" transform=" translate(-254.862, -147.5881)" d="m 227.08975 134.3387 c 1.3144531 1.0136871 2.3846283 2.1108398 3.3733826 3.124527 c 2.0589142 2.1108398 4.1062164 4.2216797 6.502472 6.3325195 c 3.4548187 3.1960754 6.909622 6.3206024 10.283005 9.528595 c 4.117859 -0.6797638 8.224075 -1.7769165 12.01622 -2.4447632 c 2.291565 -0.4650879 4.58313 -0.76322937 6.6420593 -0.76322937 c 1.337738 0 2.5707703 0.11924744 3.6409302 0.4293213 c 2.0589294 0.6678314 3.7805176 1.6815186 4.850708 3.458435 c 0.6630249 0.75131226 1.3260803 1.431076 1.3260803 2.0989075 c 0.3257141 1.4430084 -0.3373413 2.8740845 -0.6630554 3.8877716 c 0 0.33392334 0 0.33392334 0.3257141 0.33392334 c 0 0.23851013 0.1628418 0.5128021 0.3722229 0.5128021 c 0.09307861 0 0.18612671 -0.047714233 0.29083252 -0.17889404 c 3.0011292 0 4.210907 -3.9473877 4.19928 -6.80954 l 0 0 c 0.1395874 1.0971527 0.4187622 2.313568 0.6513977 3.3511047 c 0 0.6797638 -0.7328491 2.7906036 0 3.124527 c 0.10470581 0.09539795 0.1977539 0.14309692 0.2791748 0.14309692 c 0.2210083 0 0.38388062 -0.23851013 0.38388062 -0.47702026 c 1.0701599 -1.431076 1.0701599 -3.541916 1.0701599 -4.8895264 c 0 -4.984909 -1.395874 -9.540512 -4.117859 -12.998947 c -2.791748 -3.2080078 -6.583893 -5.652771 -10.701752 -5.986679 c -2.2450562 -0.274292 -4.536621 -0.35777283 -6.8514404 -0.35777283 c -2.7568665 0 -5.548645 0.10733032 -8.363678 0.10733032 c -1.3144531 0 -2.6289062 -0.023849487 -3.9549866 -0.083480835 c -7.1539 -0.7632446 -14.400864 -1.0971527 -21.554749 -1.4430084 z" stroke-linecap="round"/>
</g>
		<g transform="matrix(1 0 0 1 -200.6592 -119.3295)" clip-path="url(#CLIPPATH_27)">
<clipPath id="CLIPPATH_27">
	<path transform="matrix(1 0 0 1 200.6591 119.3295) translate(-480, -270)" id="g2a717c8034b_0_493.0" d="m 0 0 l 960 0 l 0 540 l -960 0 l 0 -540 z" stroke-linecap="round"/>
</clipPath>
<path style="stroke: none; stroke-width: 1; stroke-dasharray: none; stroke-linecap: square; stroke-dashoffset: 0; stroke-linejoin: miter; stroke-miterlimit: 10; is-custom-font: none; font-file-url: none; fill: rgb(56,56,56); fill-rule: evenodd; opacity: 1;" transform=" translate(-279.3409, -150.6705)" d="m 278.10785 147.33731 c 0 0.33392334 0.407135 0.6678467 0.407135 1.097168 c 0.3257141 0.33390808 0.6630554 0.6678314 0.6630554 1.3475952 l 0 0.7632446 c 0.3257141 1.0017548 0.6513977 2.0989075 0.6513977 3.458435 l 0.7444763 0 c 0 -1.3595276 -0.407135 -2.4566803 -0.7444763 -3.8877563 l 0 -0.6678467 c -0.3256836 -0.6797638 -0.3256836 -1.0136719 -0.6513977 -1.4429932 c -0.3373413 -0.33392334 -0.3373413 -0.6678467 -0.3373413 -0.6678467 z" stroke-linecap="round"/>
</g>
		<g transform="matrix(1 0 0 1 -202.7914 -115.6206)" clip-path="url(#CLIPPATH_28)">
<clipPath id="CLIPPATH_28">
	<path transform="matrix(1 0 0 1 202.7914 115.6206) translate(-480, -270)" id="g2a717c8034b_0_493.0" d="m 0 0 l 960 0 l 0 540 l -960 0 l 0 -540 z" stroke-linecap="round"/>
</clipPath>
<path style="stroke: none; stroke-width: 1; stroke-dasharray: none; stroke-linecap: square; stroke-dashoffset: 0; stroke-linejoin: miter; stroke-miterlimit: 10; is-custom-font: none; font-file-url: none; fill: rgb(56,56,56); fill-rule: evenodd; opacity: 1;" transform=" translate(-277.2086, -154.3794)" d="m 276.79346 147.67122 l -0.7444763 0.33392334 c 0 0.4293213 0.407135 0.7632446 0.407135 1.097168 c 0.3373413 0.34584045 0.3373413 0.67974854 0.6630554 1.4429932 c 0.988739 3.458435 0.6513977 7.000366 -1.0701904 10.112961 l 0.407135 0.4293213 c 2.0589294 -3.2080078 2.3846436 -7.083847 1.3144531 -10.542282 c -0.3256836 -0.7632446 -0.3256836 -1.4429932 -0.6513977 -1.7769165 c 0 -0.33392334 -0.3257141 -0.7632446 -0.3257141 -1.097168 z" stroke-linecap="round"/>
</g>
		<g transform="matrix(1 0 0 1 -244.7555 -123.8786)" clip-path="url(#CLIPPATH_29)">
<clipPath id="CLIPPATH_29">
	<path transform="matrix(1 0 0 1 244.7555 123.8786) translate(-480, -270)" id="g2a717c8034b_0_493.0" d="m 0 0 l 960 0 l 0 540 l -960 0 l 0 -540 z" stroke-linecap="round"/>
</clipPath>
<path style="stroke: none; stroke-width: 1; stroke-dasharray: none; stroke-linecap: square; stroke-dashoffset: 0; stroke-linejoin: miter; stroke-miterlimit: 10; is-custom-font: none; font-file-url: none; fill: rgb(247,144,143); fill-rule: evenodd; opacity: 1;" transform=" translate(-235.2445, -146.1214)" d="m 213.36444 128.90076 c -4.280716 0 -8.491623 0.8228607 -12.365189 2.993332 c -2.0589294 1.0136871 -3.4548187 2.4447632 -4.4435577 4.2216797 c -0.7444763 1.0136871 -1.0701904 2.1108398 -1.3958893 3.124527 l 0 2.4447632 l 0 1.431076 c 1.3958893 -1.0136871 2.0589294 -2.1108398 3.4548035 -2.7786865 c 2.0589294 -1.0971527 3.7805176 -2.1108398 5.839447 -3.2079926 l 0.9887543 0 c 9.631577 4.555603 19.588867 9.194672 28.150284 15.515274 c 1.7215881 1.0136719 3.0360413 2.1108398 4.7692566 3.1245117 c 0.65141296 0.33392334 1.3958893 1.097168 2.0589294 1.4310913 c 2.0589294 1.3595123 4.4435577 2.1108398 6.828186 3.458435 c 3.8619537 1.8961792 7.921631 2.6832733 12.004593 2.6832733 c 3.5595093 0 7.1306458 -0.59628296 10.620331 -1.5861206 c 7.8983765 -2.0989075 6.1767883 -10.87619 1.4075317 -15.8611145 c -2.7219849 -3.458435 -7.1655273 -5.2234344 -11.283386 -7.000351 c -9.957306 -3.541916 -20.240295 -4.555603 -30.197586 -7.000366 c -5.2461853 -1.6218872 -10.899521 -2.993332 -16.436508 -2.993332 z" stroke-linecap="round"/>
</g>
		<g transform="matrix(1 0 0 1 -275.9125 -132.9959)" clip-path="url(#CLIPPATH_30)">
<clipPath id="CLIPPATH_30">
	<path transform="matrix(1 0 0 1 275.9126 132.9959) translate(-480, -270)" id="g2a717c8034b_0_493.0" d="m 0 0 l 960 0 l 0 540 l -960 0 l 0 -540 z" stroke-linecap="round"/>
</clipPath>
<path style="stroke: none; stroke-width: 1; stroke-dasharray: none; stroke-linecap: square; stroke-dashoffset: 0; stroke-linejoin: miter; stroke-miterlimit: 10; is-custom-font: none; font-file-url: none; fill: rgb(56,56,56); fill-rule: evenodd; opacity: 1;" transform=" translate(-204.0874, -137.0041)" d="m 202.73225 135.78168 l 0 0.6678314 c 0.3257141 0.33392334 0.65141296 0.33392334 0.9887543 0.6797638 c 0.73283386 0.33390808 1.0701752 0.75131226 1.7215881 1.0971527 l 0 -0.7632446 c -0.32569885 -0.33390808 -0.65141296 -0.33390808 -1.395874 -0.67974854 c -0.3257141 -0.33392334 -0.6630554 -0.6678467 -1.3144684 -1.0017548 z" stroke-linecap="round"/>
</g>
		<g transform="matrix(1 0 0 1 -285.3811 -113.8915)" clip-path="url(#CLIPPATH_31)">
<clipPath id="CLIPPATH_31">
	<path transform="matrix(1 0 0 1 285.381 113.8916) translate(-480, -270)" id="g2a717c8034b_0_493.0" d="m 0 0 l 960 0 l 0 540 l -960 0 l 0 -540 z" stroke-linecap="round"/>
</clipPath>
<path style="stroke: none; stroke-width: 1; stroke-dasharray: none; stroke-linecap: square; stroke-dashoffset: 0; stroke-linejoin: miter; stroke-miterlimit: 10; is-custom-font: none; font-file-url: none; fill: rgb(56,56,56); fill-rule: evenodd; opacity: 1;" transform=" translate(-194.619, -156.1084)" d="m 193.42664 154.33748 c 0 1.431076 1.0701752 2.8621674 2.3846283 3.5419312 l 0 -0.6797638 c -0.9771118 -0.33392334 -1.6401672 -1.4310913 -1.6401672 -2.8621674 z" stroke-linecap="round"/>
</g>
		<g transform="matrix(1 0 0 1 -208.8945 -111.572)" clip-path="url(#CLIPPATH_32)">
<clipPath id="CLIPPATH_32">
	<path transform="matrix(1 0 0 1 208.8946 111.5721) translate(-480, -270)" id="g2a717c8034b_0_493.0" d="m 0 0 l 960 0 l 0 540 l -960 0 l 0 -540 z" stroke-linecap="round"/>
</clipPath>
<path style="stroke: none; stroke-width: 1; stroke-dasharray: none; stroke-linecap: square; stroke-dashoffset: 0; stroke-linejoin: miter; stroke-miterlimit: 10; is-custom-font: none; font-file-url: none; fill: rgb(56,56,56); fill-rule: evenodd; opacity: 1;" transform=" translate(-271.1054, -158.4279)" d="m 273.0015 156.86566 c -1.0701599 1.0136719 -2.384613 2.1108398 -4.1178284 2.444748 l 0 0.6797638 c 1.7332153 -0.33392334 3.4664307 -1.431076 4.4435425 -2.7906036 l -0.3257141 -0.33390808 z" stroke-linecap="round"/>
</g>
		<g transform="matrix(1 0 0 1 -213.8672 -109.4613)" clip-path="url(#CLIPPATH_33)">
<clipPath id="CLIPPATH_33">
	<path transform="matrix(1 0 0 1 213.8673 109.4613) translate(-480, -270)" id="g2a717c8034b_0_493.0" d="m 0 0 l 960 0 l 0 540 l -960 0 l 0 -540 z" stroke-linecap="round"/>
</clipPath>
<path style="stroke: none; stroke-width: 1; stroke-dasharray: none; stroke-linecap: square; stroke-dashoffset: 0; stroke-linejoin: miter; stroke-miterlimit: 10; is-custom-font: none; font-file-url: none; fill: rgb(56,56,56); fill-rule: evenodd; opacity: 1;" transform=" translate(-266.1327, -160.5387)" d="m 267.16217 159.9901 l -2.384613 0.33390808 l 0 0.7632446 l 2.7103271 -0.4293213 l -0.3257141 -0.6678314 z" stroke-linecap="round"/>
</g>
		<g transform="matrix(1 0 0 1 -284.2881 140.9465)" clip-path="url(#CLIPPATH_34)">
<clipPath id="CLIPPATH_34">
	<path transform="matrix(1 0 0 1 284.2881 -140.9466) translate(-480, -270)" id="g2a717c8034b_0_493.0" d="m 0 0 l 960 0 l 0 540 l -960 0 l 0 -540 z" stroke-linecap="round"/>
</clipPath>
<path style="stroke: none; stroke-width: 1; stroke-dasharray: none; stroke-linecap: square; stroke-dashoffset: 0; stroke-linejoin: miter; stroke-miterlimit: 10; is-custom-font: none; font-file-url: none; fill: rgb(56,56,56); fill-rule: evenodd; opacity: 1;" transform=" translate(-195.7119, -410.9466)" d="m 199.23724 401.45374 c -3.466446 2.4447632 -7.1655273 4.555603 -11.283386 6.3325195 c -3.1174622 1.00177 -5.513733 2.4447632 -8.631195 4.209778 c -2.7219849 1.3475952 -11.283386 4.5555725 -4.117859 7.3461914 c 2.7917633 1.097168 5.839432 1.097168 8.642838 1.097168 c 8.549774 -0.3458557 17.43689 -1.776947 26.324005 -2.4447632 l 4.117859 0 c 0.74446106 -0.4293213 1.7332153 -0.4293213 2.8033905 -0.4293213 l 0.3257141 0 c 3.7805023 -1.0137024 0 -14.763977 -2.7103424 -14.763977 c -1.2911987 0.10733032 -2.5591125 0.1550293 -3.838684 0.1550293 c -3.8735657 0 -7.735504 -0.48892212 -11.6323395 -1.5026245 z" stroke-linecap="round"/>
</g>
		<g transform="matrix(1 0 0 1 -227.0347 -148.3555)" clip-path="url(#CLIPPATH_35)">
<clipPath id="CLIPPATH_35">
	<path transform="matrix(1 0 0 1 227.0347 148.3554) translate(-480, -270)" id="g2a717c8034b_0_493.0" d="m 0 0 l 960 0 l 0 540 l -960 0 l 0 -540 z" stroke-linecap="round"/>
</clipPath>
<path style="stroke: none; stroke-width: 1; stroke-dasharray: none; stroke-linecap: square; stroke-dashoffset: 0; stroke-linejoin: miter; stroke-miterlimit: 10; is-custom-font: none; font-file-url: none; fill: rgb(56,56,56); fill-rule: evenodd; opacity: 1;" transform=" translate(-252.9653, -121.6446)" d="m 250.03975 107.93603 c 2.7219849 7.7635956 4.443573 16.874794 5.106613 27.417076 l 0.74446106 0 c -0.74446106 -10.542282 -2.4776917 -19.65348 -5.188019 -27.417076 z" stroke-linecap="round"/>
</g>
		<g transform="matrix(1 0 0 1 -277.4305 -151.1401)" clip-path="url(#CLIPPATH_36)">
<clipPath id="CLIPPATH_36">
	<path transform="matrix(1 0 0 1 277.4305 151.1401) translate(-480, -270)" id="g2a717c8034b_0_493.0" d="m 0 0 l 960 0 l 0 540 l -960 0 l 0 -540 z" stroke-linecap="round"/>
</clipPath>
<path style="stroke: none; stroke-width: 1; stroke-dasharray: none; stroke-linecap: square; stroke-dashoffset: 0; stroke-linejoin: miter; stroke-miterlimit: 10; is-custom-font: none; font-file-url: none; fill: rgb(56,56,56); fill-rule: evenodd; opacity: 1;" transform=" translate(-202.5695, -118.8599)" d="m 200.34769 107.93603 l 3.6990967 21.847786 l 0.74446106 0 l -3.7921448 -21.847786 z" stroke-linecap="round"/>
</g>
		<g transform="matrix(1 0 0 1 -263.4081 -211.5899)" clip-path="url(#CLIPPATH_37)">
<clipPath id="CLIPPATH_37">
	<path transform="matrix(1 0 0 1 263.4081 211.5898) translate(-480, -270)" id="g2a717c8034b_0_493.0" d="m 0 0 l 960 0 l 0 540 l -960 0 l 0 -540 z" stroke-linecap="round"/>
</clipPath>
<path style="stroke: none; stroke-width: 1; stroke-dasharray: none; stroke-linecap: square; stroke-dashoffset: 0; stroke-linejoin: miter; stroke-miterlimit: 10; is-custom-font: none; font-file-url: none; fill: rgb(56,56,56); fill-rule: evenodd; opacity: 1;" transform=" translate(-216.5919, -58.4102)" d="m 214.3294 56.299347 l 0 0.67976 c 1.0701752 0 2.0589142 0.33391953 2.8033905 1.0971603 c 0.65141296 0.33391953 0.9887543 1.347599 0.9887543 2.4447594 l 0.73283386 0 c 0 -1.0971603 -0.407135 -2.4447594 -1.395874 -3.2080002 c -0.6630554 -0.66783524 -2.0589294 -1.0136795 -3.1291046 -1.0136795 z" stroke-linecap="round"/>
</g>
		<g transform="matrix(1 0 0 1 -132.618 54.84)" clip-path="url(#CLIPPATH_38)">
<clipPath id="CLIPPATH_38">
	<path transform="matrix(1 0 0 1 132.6179 -54.84) translate(-480, -270)" id="g2a717c8034b_0_493.0" d="m 0 0 l 960 0 l 0 540 l -960 0 l 0 -540 z" stroke-linecap="round"/>
</clipPath>
<path style="stroke: none; stroke-width: 1; stroke-dasharray: none; stroke-linecap: square; stroke-dashoffset: 0; stroke-linejoin: miter; stroke-miterlimit: 10; is-custom-font: none; font-file-url: none; fill: rgb(233,88,86); fill-rule: evenodd; opacity: 1;" transform=" translate(-347.3821, -324.84)" d="m 343.93362 320.9582 c -0.988739 1.097168 -1.6401672 2.1108398 -2.0589294 3.2080078 c -0.6513977 1.4310608 -0.3256836 2.0989075 0.4187622 2.4447632 c 0.3257141 0.16696167 0.6514282 0.25042725 1.0003967 0.25042725 c 0.3373413 0 0.6863098 -0.083465576 1.0585327 -0.25042725 c 0.3257141 -0.3458557 0.98876953 -0.67977905 1.3144531 -1.0137024 c 0.7328491 -0.7632141 1.3959045 -1.4310608 2.0589294 -1.7769165 l 0 0 c 0 0.3458557 0 0.67977905 -0.3373413 1.0137024 c -0.3256836 0.7632141 -0.6513977 1.4310608 -0.6513977 2.1108398 c 0 0.7632141 0 1.0971375 0.3257141 1.4310608 c 0.3256836 0.3458557 0.6630249 0.3458557 0.988739 0.3458557 l 0.7444763 0 c 0.3257141 -0.3458557 0.6513977 -0.67977905 0.988739 -1.0137024 c 1.0701904 -1.0971375 1.7215881 -2.1108398 3.1174927 -2.5282288 c 0.3373108 0 0.3373108 -0.3458252 0.3373108 -0.67974854 c 0 -0.33392334 -0.3373108 -0.67977905 -0.6630249 -0.67977905 c -1.7215881 0.67977905 -2.7917786 1.7769165 -3.7805176 3.1245422 c -0.3373413 0 -0.3373413 0.33389282 -0.7444763 0.33389282 l 0 -0.33389282 c 0 -0.33392334 0.407135 -0.67977905 0.7444763 -1.3476257 c 0 -0.41738892 0.3257141 -0.7632141 0.6513977 -1.4310608 c 0 -0.67977905 -0.3256836 -1.097168 -0.6513977 -1.4430237 c 0 0 -0.1512146 -0.14309692 -0.37225342 -0.14309692 c -0.10467529 0 -0.2326355 0.0357666 -0.3722229 0.14309692 c -1.3144531 0 -2.3846436 0.7632446 -3.3733826 1.776947 c -0.3257141 0.33392334 -0.7444763 0.67974854 -1.0701599 0.67974854 c -0.3257141 0.41738892 -0.6630554 0.41738892 -0.6630554 0.41738892 l 0 -0.7632141 c 0.3373413 -1.0137024 0.988739 -2.1108704 1.7332153 -2.7786865 c 0.3257141 0 0.3257141 -0.67977905 0 -1.097168 z" stroke-linecap="round"/>
</g>
		<g transform="matrix(1 0 0 1 -293.1684 140.9468)" clip-path="url(#CLIPPATH_39)">
<clipPath id="CLIPPATH_39">
	<path transform="matrix(1 0 0 1 293.1684 -140.9468) translate(-480, -270)" id="g2a717c8034b_0_493.0" d="m 0 0 l 960 0 l 0 540 l -960 0 l 0 -540 z" stroke-linecap="round"/>
</clipPath>
<path style="stroke: none; stroke-width: 1; stroke-dasharray: none; stroke-linecap: square; stroke-dashoffset: 0; stroke-linejoin: miter; stroke-miterlimit: 10; is-custom-font: none; font-file-url: none; fill: rgb(233,88,86); fill-rule: evenodd; opacity: 1;" transform=" translate(-186.8316, -410.9468)" d="m 190.2397 406.70132 c -0.2210083 0 -0.43040466 0.047698975 -0.59324646 0.047698975 c -0.9887543 0.67974854 -0.9887543 2.456665 -0.66304016 3.2080078 l 0 0.3458252 c 0.33732605 0 0.33732605 0.33392334 0.33732605 0.6678467 l 0 0.33392334 c 0 0 -0.33732605 0 -0.988739 -0.33392334 c -0.3373413 -0.33392334 -0.3373413 -0.33392334 -0.7444763 -0.6678467 l -0.32569885 -0.3458252 c 0 -0.41741943 -0.3373413 -0.7513428 -0.6630554 -0.7513428 c -0.38386536 -0.40545654 -0.80262756 -0.56048584 -1.1399689 -0.56048584 c -0.24427795 0 -0.45365906 0.083465576 -0.58161926 0.21466064 c -0.988739 0.3458252 -1.4075165 1.4429932 -0.988739 2.1108398 c 0 0.33392334 0 0.67974854 0.32569885 1.097168 l 0 0.67974854 c 0.32569885 0.33392334 0.32569885 0.6678467 0 1.0136719 c 0 0 -0.32569885 0 -0.7444763 -0.3458252 c 0 0 -0.6513977 -0.6678467 -0.6513977 -1.3475952 c -0.3373413 0 -0.3373413 -0.41741943 -0.3373413 -0.41741943 c -0.16285706 -0.16696167 -0.3257141 -0.25042725 -0.50019836 -0.25042725 c -0.17448425 0 -0.3605957 0.083465576 -0.5699768 0.25042725 c -0.3257141 0 -0.3257141 0.41741943 -0.3257141 0.75131226 c 0.3257141 0.3458557 0.3257141 0.3458557 0.3257141 0.67977905 c 0.74446106 0.67974854 1.0701752 1.4310608 1.4075165 1.7769165 c 0.32569885 0 0.6513977 0.33392334 1.395874 0.33392334 c 0.32569885 0 0.66304016 -0.33392334 0.9887543 -0.33392334 c 0.73283386 -0.67974854 0.73283386 -1.7769165 0.32569885 -2.4566956 l 0 -0.75131226 c -0.32569885 -0.3458252 -0.32569885 -0.67974854 -0.32569885 -1.0136719 l 0 -0.67974854 c 0.32569885 0 0.32569885 0 0.73283386 0.3458252 l 0.3373413 0.33392334 l 0.32569885 0.33392334 c 0.3257141 0.33392334 0.6630554 0.67974854 0.9887543 1.097168 c 0.5467224 0.5008545 1.2213898 0.8109436 1.8262787 0.8109436 c 0.23265076 0 0.44203186 -0.047698975 0.63978577 -0.13119507 c 0.66304016 -0.3458557 0.66304016 -1.097168 0.66304016 -2.1108398 c 0 -0.33392334 0 -0.67974854 -0.3257141 -1.097168 l 0 -0.33392334 c -0.33732605 -0.3458252 0 -0.67974854 0 -1.0136719 l 0.3257141 0 c 0 0.33392334 0.32569885 0.6678467 0.32569885 1.3475952 c 0.23265076 0.29815674 0.4769287 0.56051636 0.7328491 0.56051636 c 0.10469055 0 0.2210083 -0.047698975 0.33732605 -0.14309692 c 0.3257141 0 0.6630554 -0.41741943 0.3257141 -0.7513428 c 0 -1.0136719 -0.3257141 -1.3594971 -1.0701752 -1.7769165 c -0.3955078 -0.6081848 -0.79100037 -0.7274475 -1.1283417 -0.7274475 z" stroke-linecap="round"/>
</g>
		<g transform="matrix(1 0 0 1 -153.8748 38.0013)" clip-path="url(#CLIPPATH_40)">
<clipPath id="CLIPPATH_40">
	<path transform="matrix(1 0 0 1 153.8748 -38.0013) translate(-480, -270)" id="g2a717c8034b_0_493.0" d="m 0 0 l 960 0 l 0 540 l -960 0 l 0 -540 z" stroke-linecap="round"/>
</clipPath>
<path style="stroke: none; stroke-width: 1; stroke-dasharray: none; stroke-linecap: square; stroke-dashoffset: 0; stroke-linejoin: miter; stroke-miterlimit: 10; is-custom-font: none; font-file-url: none; fill: rgb(56,56,56); fill-rule: evenodd; opacity: 1;" transform=" translate(-326.1252, -308.0013)" d="m 335.71024 306.94592 c -2.7219849 0 -5.432312 0.3458557 -8.235718 0.67977905 c -1.6401672 0 -3.0360413 0.33392334 -4.7692566 0.33392334 c -1.0236511 0.16693115 -2.0589294 0.26235962 -3.0476685 0.26235962 c -0.98876953 0 -1.9309692 -0.09542847 -2.7917786 -0.26235962 l -0.3257141 0.7632141 c 1.0585632 0.33392334 1.7215881 0.33392334 2.3846436 0.33392334 c 1.395874 0 2.3846436 -0.33392334 3.7805176 -0.33392334 c 1.7332153 0 3.4548035 -0.41738892 4.7692566 -0.41738892 c 2.8034058 -0.3458252 5.513733 -0.67974854 8.235718 -0.67974854 l 0 -0.67977905 z" stroke-linecap="round"/>
</g>
		<g transform="matrix(1 0 0 1 -272.3355 118.8252)" clip-path="url(#CLIPPATH_41)">
<clipPath id="CLIPPATH_41">
	<path transform="matrix(1 0 0 1 272.3355 -118.8253) translate(-480, -270)" id="g2a717c8034b_0_493.0" d="m 0 0 l 960 0 l 0 540 l -960 0 l 0 -540 z" stroke-linecap="round"/>
</clipPath>
<path style="stroke: none; stroke-width: 1; stroke-dasharray: none; stroke-linecap: square; stroke-dashoffset: 0; stroke-linejoin: miter; stroke-miterlimit: 10; is-custom-font: none; font-file-url: none; fill: rgb(56,56,56); fill-rule: evenodd; opacity: 1;" transform=" translate(-207.6645, -388.8253)" d="m 197.54437 388.10974 l 0 0.7632141 c 2.3846283 0.33392334 4.4435577 0.6678467 6.909622 0.6678467 l 1.3144531 0 c 1.4075165 0 2.8033905 0 4.1178436 -0.33392334 c 1.1981354 -0.16696167 2.489334 -0.25042725 3.8270416 -0.25042725 c 1.3377228 0 2.7219849 0.083465576 4.071335 0.25042725 l 0 -0.7632446 c -1.1865082 -0.16696167 -2.570755 -0.25042725 -3.9898987 -0.25042725 c -1.4191437 0 -2.8731995 0.083465576 -4.2341766 0.25042725 c -0.9887543 0.4293213 -2.3846283 0.4293213 -3.7921448 0.4293213 c -2.7103424 0 -5.420685 0 -8.224075 -0.7632141 z" stroke-linecap="round"/>
</g>
		<g transform="matrix(1 0 0 1 -278.8321 -68.5096)" clip-path="url(#CLIPPATH_42)">
<clipPath id="CLIPPATH_42">
	<path transform="matrix(1 0 0 1 278.832 68.5096) translate(-480, -270)" id="g2a717c8034b_0_493.0" d="m 0 0 l 960 0 l 0 540 l -960 0 l 0 -540 z" stroke-linecap="round"/>
</clipPath>
<path style="stroke: none; stroke-width: 1; stroke-dasharray: none; stroke-linecap: square; stroke-dashoffset: 0; stroke-linejoin: miter; stroke-miterlimit: 10; is-custom-font: none; font-file-url: none; fill: rgb(56,56,56); fill-rule: evenodd; opacity: 1;" transform=" translate(-201.168, -201.4904)" d="m 208.57196 196.93477 c -1.395874 2.7906036 -4.5249786 4.9014435 -8.642838 6.3325195 c -0.9887543 0.33390808 -1.6401672 0.6797638 -2.3846283 1.0136719 c -1.3144531 0.33392334 -2.0589294 0.6797638 -4.4435577 1.097168 l 0 0.6678314 c 2.7103424 -0.33392334 3.1291046 -0.6678314 4.7692566 -1.431076 c 0.7444763 0 1.4075165 -0.33392334 2.0589294 -0.6678314 c 4.5249786 -1.4430084 7.5726624 -3.5419312 9.305878 -6.666443 l -0.66304016 -0.34584045 z" stroke-linecap="round"/>
</g>
		<g transform="matrix(1 0 0 1 -263.8961 -123.5628)" clip-path="url(#CLIPPATH_43)">
<clipPath id="CLIPPATH_43">
	<path transform="matrix(1 0 0 1 263.8961 123.5628) translate(-480, -270)" id="g2a717c8034b_0_493.0" d="m 0 0 l 960 0 l 0 540 l -960 0 l 0 -540 z" stroke-linecap="round"/>
</clipPath>
<path style="stroke: none; stroke-width: 1; stroke-dasharray: none; stroke-linecap: square; stroke-dashoffset: 0; stroke-linejoin: miter; stroke-miterlimit: 10; is-custom-font: none; font-file-url: none; fill: rgb(56,56,56); fill-rule: evenodd; opacity: 1;" transform=" translate(-216.1039, -146.4372)" d="m 205.10547 137.43929 c -0.3722229 0 -0.74446106 0.119262695 -1.0585327 0.44125366 c -1.6517944 0.6797638 -3.0476837 1.3595276 -4.4435577 2.4566803 c -1.7332306 0.6678467 -3.0476837 1.7649994 -4.769272 2.4447632 l 0.3257141 0.6678314 c 1.7215881 -0.6678314 3.1290894 -1.7649841 4.7692566 -2.444748 c 1.3958893 -1.0136871 2.8033905 -1.7649994 4.117859 -2.7786865 c 0.2210083 -0.10733032 0.4303894 -0.14309692 0.6281433 -0.14309692 c 0.5001831 0 0.9654846 0.23851013 1.4307709 0.47702026 c 2.7917633 1.7769165 6.165146 3.541916 9.2942505 4.555603 l 0.3257141 0.33390808 c 7.2469482 3.2080078 14.400848 7.4296875 21.240662 11.985291 l 0.407135 -0.6797638 c -6.909607 -4.639084 -14.075134 -8.860764 -21.31047 -11.973358 l -0.66304016 -0.34584045 c -2.7103271 -1.097168 -6.165146 -2.862152 -8.8871155 -4.555603 c -0.4187622 -0.23851013 -0.9189453 -0.44125366 -1.4075165 -0.44125366 z" stroke-linecap="round"/>
</g>
		<g transform="matrix(1 0 0 1 -218.6768 -124.6063)" clip-path="url(#CLIPPATH_44)">
<clipPath id="CLIPPATH_44">
	<path transform="matrix(1 0 0 1 218.6768 124.6062) translate(-480, -270)" id="g2a717c8034b_0_493.0" d="m 0 0 l 960 0 l 0 540 l -960 0 l 0 -540 z" stroke-linecap="round"/>
</clipPath>
<path style="stroke: none; stroke-width: 1; stroke-dasharray: none; stroke-linecap: square; stroke-dashoffset: 0; stroke-linejoin: miter; stroke-miterlimit: 10; is-custom-font: none; font-file-url: none; fill: rgb(56,56,56); fill-rule: evenodd; opacity: 1;" transform=" translate(-261.3232, -145.3938)" d="m 247.24808 135.01845 l -0.32569885 0.7632446 c 6.4908447 2.0989075 13.737808 4.2097473 19.914566 8.431427 c 1.7215881 1.0136871 2.7103577 2.110855 3.7805176 3.124527 c 1.7332153 1.7649994 3.0476685 4.555603 4.443573 8.431442 l 0.6630249 -0.33392334 c -0.6630249 -2.7906036 -2.0589294 -5.986679 -4.4435425 -8.777283 c -0.988739 -1.0971527 -2.3962708 -2.1108398 -4.117859 -3.2079926 c -6.502472 -4.2097626 -13.749435 -6.3206024 -19.914581 -8.431442 z" stroke-linecap="round"/>
</g>
		<g transform="matrix(1 0 0 1 -248.3097 -203.6952)" clip-path="url(#CLIPPATH_45)">
<clipPath id="CLIPPATH_45">
	<path transform="matrix(1 0 0 1 248.3097 203.6953) translate(-480, -270)" id="g2a717c8034b_0_493.0" d="m 0 0 l 960 0 l 0 540 l -960 0 l 0 -540 z" stroke-linecap="round"/>
</clipPath>
<path style="stroke: none; stroke-width: 1; stroke-dasharray: none; stroke-linecap: square; stroke-dashoffset: 0; stroke-linejoin: miter; stroke-miterlimit: 10; is-custom-font: none; font-file-url: none; fill: rgb(255,255,255); fill-rule: evenodd; opacity: 1;" transform=" translate(-231.6903, -66.3047)" d="m 235.63951 64.74248 l -7.8983765 1.4310837 c 0.9887543 1.0136795 2.7219696 1.6934433 4.4435577 1.6934433 c 1.7332306 -0.34584808 3.1291046 -1.6934433 3.4548187 -3.124527 z" stroke-linecap="round"/>
</g>
		<g transform="matrix(1 0 0 1 -239.7486 -216.354)" clip-path="url(#CLIPPATH_46)">
<clipPath id="CLIPPATH_46">
	<path transform="matrix(1 0 0 1 239.7486 216.354) translate(-480, -270)" id="g2a717c8034b_0_493.0" d="m 0 0 l 960 0 l 0 540 l -960 0 l 0 -540 z" stroke-linecap="round"/>
</clipPath>
<path style="stroke: none; stroke-width: 1; stroke-dasharray: none; stroke-linecap: square; stroke-dashoffset: 0; stroke-linejoin: miter; stroke-miterlimit: 10; is-custom-font: none; font-file-url: none; fill: rgb(56,56,56); fill-rule: evenodd; opacity: 1;" transform=" translate(-240.2514, -53.646)" d="m 240.08275 50.31283 c 0 2.1108398 0 4.2216797 -0.3257141 6.3325195 l 0.66304016 0.33391953 c 0.3257141 -2.1108398 0.3257141 -4.555599 0.3257141 -6.666439 z" stroke-linecap="round"/>
</g>
		<g transform="matrix(1 0 0 1 -227.0348 -158.8619)" clip-path="url(#CLIPPATH_47)">
<clipPath id="CLIPPATH_47">
	<path transform="matrix(1 0 0 1 227.0348 158.8619) translate(-480, -270)" id="g2a717c8034b_0_493.0" d="m 0 0 l 960 0 l 0 540 l -960 0 l 0 -540 z" stroke-linecap="round"/>
</clipPath>
<path style="stroke: none; stroke-width: 1; stroke-dasharray: none; stroke-linecap: square; stroke-dashoffset: 0; stroke-linejoin: miter; stroke-miterlimit: 10; is-custom-font: none; font-file-url: none; fill: rgb(56,56,56); fill-rule: evenodd; opacity: 1;" transform=" translate(-252.9652, -111.1381)" d="m 253.08737 107.25628 c -0.65141296 2.456688 -0.988739 5.31884 -0.988739 7.763603 l 0.66304016 0 c 0 -2.4447632 0.32569885 -5.3069153 1.0701752 -7.763603 z" stroke-linecap="round"/>
</g>
		<g transform="matrix(1 0 0 1 -239.5799 -105.0787)" clip-path="url(#CLIPPATH_48)">
<clipPath id="CLIPPATH_48">
	<path transform="matrix(1 0 0 1 239.5799 105.0787) translate(-480, -270)" id="g2a717c8034b_0_493.0" d="m 0 0 l 960 0 l 0 540 l -960 0 l 0 -540 z" stroke-linecap="round"/>
</clipPath>
<path style="stroke: none; stroke-width: 1; stroke-dasharray: none; stroke-linecap: square; stroke-dashoffset: 0; stroke-linejoin: miter; stroke-miterlimit: 10; is-custom-font: none; font-file-url: none; fill: rgb(255,227,227); fill-rule: evenodd; opacity: 1;" transform=" translate(-240.4201, -164.9213)" d="m 240.42012 162.43478 c -1.4075012 0 -2.3846283 1.0971527 -2.3846283 2.4447632 c 0 1.431076 0.9771271 2.5282288 2.3846283 2.5282288 c 1.3958893 0 2.3846436 -1.0971527 2.3846436 -2.5282288 c 0 -1.3476105 -0.9887543 -2.4447632 -2.3846436 -2.4447632 z" stroke-linecap="round"/>
</g>
		<g transform="matrix(1 0 0 1 -250.5256 -163.793)" clip-path="url(#CLIPPATH_49)">
<clipPath id="CLIPPATH_49">
	<path transform="matrix(1 0 0 1 250.5256 163.7931) translate(-480, -270)" id="g2a717c8034b_0_493.0" d="m 0 0 l 960 0 l 0 540 l -960 0 l 0 -540 z" stroke-linecap="round"/>
</clipPath>
<path style="stroke: none; stroke-width: 1; stroke-dasharray: none; stroke-linecap: square; stroke-dashoffset: 0; stroke-linejoin: miter; stroke-miterlimit: 10; is-custom-font: none; font-file-url: none; fill: rgb(255,227,227); fill-rule: evenodd; opacity: 1;" transform=" translate(-229.4744, -106.2069)" d="m 229.47438 103.714455 c -1.3958893 0 -2.3846283 1.0971603 -2.3846283 2.5401688 c 0 1.3475952 0.988739 2.4447556 2.3846283 2.4447556 c 1.3144531 0 2.3846283 -1.0971603 2.3846283 -2.4447556 c 0 -1.4430084 -1.0701752 -2.5401688 -2.3846283 -2.5401688 z" stroke-linecap="round"/>
</g>
		<g transform="matrix(1 0 0 1 -274.2259 -176.7857)" clip-path="url(#CLIPPATH_50)">
<clipPath id="CLIPPATH_50">
	<path transform="matrix(1 0 0 1 274.2259 176.7857) translate(-480, -270)" id="g2a717c8034b_0_493.0" d="m 0 0 l 960 0 l 0 540 l -960 0 l 0 -540 z" stroke-linecap="round"/>
</clipPath>
<path style="stroke: none; stroke-width: 1; stroke-dasharray: none; stroke-linecap: square; stroke-dashoffset: 0; stroke-linejoin: miter; stroke-miterlimit: 10; is-custom-font: none; font-file-url: none; fill: rgb(255,227,227); fill-rule: evenodd; opacity: 1;" transform=" translate(-205.7741, -93.2143)" d="m 205.76828 90.727776 c -1.3144531 0 -2.3846283 1.0971603 -2.3846283 2.4447556 c 0 1.431076 1.0701752 2.5282364 2.3846283 2.5282364 c 1.4075165 0 2.3962708 -1.0971603 2.3962708 -2.5282364 c 0 -1.3475952 -0.9887543 -2.4447556 -2.3962708 -2.4447556 z" stroke-linecap="round"/>
</g>
		<g transform="matrix(1 0 0 1 -224.4814 -175.3964)" clip-path="url(#CLIPPATH_51)">
<clipPath id="CLIPPATH_51">
	<path transform="matrix(1 0 0 1 224.4815 175.3964) translate(-480, -270)" id="g2a717c8034b_0_493.0" d="m 0 0 l 960 0 l 0 540 l -960 0 l 0 -540 z" stroke-linecap="round"/>
</clipPath>
<path style="stroke: none; stroke-width: 1; stroke-dasharray: none; stroke-linecap: square; stroke-dashoffset: 0; stroke-linejoin: miter; stroke-miterlimit: 10; is-custom-font: none; font-file-url: none; fill: rgb(255,227,227); fill-rule: evenodd; opacity: 1;" transform=" translate(-255.5185, -94.6036)" d="m 255.47198 92.15881 c -1.3144531 0 -2.3846283 1.0136795 -2.3846283 2.4447556 c 0 1.4430084 1.0701752 2.4447632 2.3846283 2.4447632 c 1.4075012 0 2.4776917 -1.0017548 2.4776917 -2.4447632 c 0 -1.431076 -1.0701904 -2.4447556 -2.4776917 -2.4447556 z" stroke-linecap="round"/>
</g>
		<g transform="matrix(1 0 0 1 -239.5799 -143.4187)" clip-path="url(#CLIPPATH_52)">
<clipPath id="CLIPPATH_52">
	<path transform="matrix(1 0 0 1 239.5799 143.4187) translate(-480, -270)" id="g2a717c8034b_0_493.0" d="m 0 0 l 960 0 l 0 540 l -960 0 l 0 -540 z" stroke-linecap="round"/>
</clipPath>
<path style="stroke: none; stroke-width: 1; stroke-dasharray: none; stroke-linecap: square; stroke-dashoffset: 0; stroke-linejoin: miter; stroke-miterlimit: 10; is-custom-font: none; font-file-url: none; fill: rgb(255,227,227); fill-rule: evenodd; opacity: 1;" transform=" translate(-240.4201, -126.5813)" d="m 240.42012 124.13062 c -1.4075012 0 -2.3846283 1.0971603 -2.3846283 2.4447556 c 0 1.4430084 0.9771271 2.4566803 2.3846283 2.4566803 c 1.3958893 0 2.3846436 -1.0136719 2.3846436 -2.4566803 c 0 -1.3475952 -0.9887543 -2.4447556 -2.3846436 -2.4447556 z" stroke-linecap="round"/>
</g>
		<g transform="matrix(1 0 0 1 -226.2089 -88.58)" clip-path="url(#CLIPPATH_53)">
<clipPath id="CLIPPATH_53">
	<path transform="matrix(1 0 0 1 226.2089 88.58) translate(-480, -270)" id="g2a717c8034b_0_493.0" d="m 0 0 l 960 0 l 0 540 l -960 0 l 0 -540 z" stroke-linecap="round"/>
</clipPath>
<path style="stroke: none; stroke-width: 1; stroke-dasharray: none; stroke-linecap: square; stroke-dashoffset: 0; stroke-linejoin: miter; stroke-miterlimit: 10; is-custom-font: none; font-file-url: none; fill: rgb(255,227,227); fill-rule: evenodd; opacity: 1;" transform=" translate(-253.7911, -181.42)" d="m 253.83186 178.97522 c -1.395874 0 -2.4660492 1.0971527 -2.4660492 2.444748 c 0 1.4310913 1.0701752 2.4447632 2.4660492 2.4447632 c 1.3144531 0 2.3846283 -1.0136719 2.3846283 -2.4447632 c 0 -1.3475952 -1.0701752 -2.444748 -2.3846283 -2.444748 z" stroke-linecap="round"/>
</g>
		<g transform="matrix(1 0 0 1 -267.1943 -148.314)" clip-path="url(#CLIPPATH_54)">
<clipPath id="CLIPPATH_54">
	<path transform="matrix(1 0 0 1 267.1943 148.314) translate(-480, -270)" id="g2a717c8034b_0_493.0" d="m 0 0 l 960 0 l 0 540 l -960 0 l 0 -540 z" stroke-linecap="round"/>
</clipPath>
<path style="stroke: none; stroke-width: 1; stroke-dasharray: none; stroke-linecap: square; stroke-dashoffset: 0; stroke-linejoin: miter; stroke-miterlimit: 10; is-custom-font: none; font-file-url: none; fill: rgb(255,227,227); fill-rule: evenodd; opacity: 1;" transform=" translate(-212.8057, -121.686)" d="m 213.01506 119.24124 c -1.3958893 0 -2.8034058 1.0136795 -2.8034058 2.4447556 c 0 1.431076 1.4075165 2.4447556 2.8034058 2.4447556 c 0.9887543 0 2.3846283 -1.0136795 2.3846283 -2.4447556 c 0 -1.431076 -1.395874 -2.4447556 -2.3846283 -2.4447556 z" stroke-linecap="round"/>
</g>
		<g transform="matrix(1 0 0 1 -209.9182 -142.3216)" clip-path="url(#CLIPPATH_55)">
<clipPath id="CLIPPATH_55">
	<path transform="matrix(1 0 0 1 209.9182 142.3215) translate(-480, -270)" id="g2a717c8034b_0_493.0" d="m 0 0 l 960 0 l 0 540 l -960 0 l 0 -540 z" stroke-linecap="round"/>
</clipPath>
<path style="stroke: none; stroke-width: 1; stroke-dasharray: none; stroke-linecap: square; stroke-dashoffset: 0; stroke-linejoin: miter; stroke-miterlimit: 10; is-custom-font: none; font-file-url: none; fill: rgb(255,227,227); fill-rule: evenodd; opacity: 1;" transform=" translate(-270.0818, -127.6785)" d="m 269.87244 125.22775 c -0.988739 0 -2.384613 1.0136795 -2.384613 2.4447632 c 0 1.3595276 1.395874 2.4566803 2.384613 2.4566803 c 1.4075317 0 2.8034058 -1.0971527 2.8034058 -2.4566803 c 0 -1.4310837 -1.395874 -2.4447632 -2.8034058 -2.4447632 z" stroke-linecap="round"/>
</g>
		<g transform="matrix(1 0 0 1 -295.1287 -151.3073)" clip-path="url(#CLIPPATH_56)">
<clipPath id="CLIPPATH_56">
	<path transform="matrix(1 0 0 1 295.1287 151.3073) translate(-480, -270)" id="g2a717c8034b_0_493.0" d="m 0 0 l 960 0 l 0 540 l -960 0 l 0 -540 z" stroke-linecap="round"/>
</clipPath>
<path style="stroke: none; stroke-width: 1; stroke-dasharray: none; stroke-linecap: square; stroke-dashoffset: 0; stroke-linejoin: miter; stroke-miterlimit: 10; is-custom-font: none; font-file-url: none; fill: rgb(255,227,227); fill-rule: evenodd; opacity: 1;" transform=" translate(-184.8713, -118.6927)" d="m 184.87715 116.033325 c -1.4075165 0 -2.3962708 1.431076 -2.3962708 2.8740845 c 0 1.0136795 0.9887543 2.4447556 2.3962708 2.4447556 c 1.395874 0 2.3846283 -1.431076 2.3846283 -2.4447556 c 0 -1.4430084 -0.9887543 -2.8740845 -2.3846283 -2.8740845 z" stroke-linecap="round"/>
</g>
		<g transform="matrix(1 0 0 1 -254.3119 -88.2044)" clip-path="url(#CLIPPATH_57)">
<clipPath id="CLIPPATH_57">
	<path transform="matrix(1 0 0 1 254.3118 88.2044) translate(-480, -270)" id="g2a717c8034b_0_493.0" d="m 0 0 l 960 0 l 0 540 l -960 0 l 0 -540 z" stroke-linecap="round"/>
</clipPath>
<path style="stroke: none; stroke-width: 1; stroke-dasharray: none; stroke-linecap: square; stroke-dashoffset: 0; stroke-linejoin: miter; stroke-miterlimit: 10; is-custom-font: none; font-file-url: none; fill: rgb(255,227,227); fill-rule: evenodd; opacity: 1;" transform=" translate(-225.6882, -181.7956)" d="m 225.68233 179.30913 c -1.395874 0 -2.3846283 1.0971527 -2.3846283 2.4447632 c 0 1.431076 0.9887543 2.5282288 2.3846283 2.5282288 c 1.4075165 0 2.3962708 -1.0971527 2.3962708 -2.5282288 c 0 -1.3476105 -0.9887543 -2.4447632 -2.3962708 -2.4447632 z" stroke-linecap="round"/>
</g>
		<g transform="matrix(1 0 0 1 -268.3808 -101.2388)" clip-path="url(#CLIPPATH_58)">
<clipPath id="CLIPPATH_58">
	<path transform="matrix(1 0 0 1 268.3808 101.2388) translate(-480, -270)" id="g2a717c8034b_0_493.0" d="m 0 0 l 960 0 l 0 540 l -960 0 l 0 -540 z" stroke-linecap="round"/>
</clipPath>
<path style="stroke: none; stroke-width: 1; stroke-dasharray: none; stroke-linecap: square; stroke-dashoffset: 0; stroke-linejoin: miter; stroke-miterlimit: 10; is-custom-font: none; font-file-url: none; fill: rgb(255,227,227); fill-rule: evenodd; opacity: 1;" transform=" translate(-211.6192, -168.7612)" d="m 211.6192 166.31052 c -1.4075165 0 -2.3846283 1.0971527 -2.3846283 2.4566803 c 0 1.431076 0.9771118 2.4447632 2.3846283 2.4447632 c 1.3958893 0 2.3846283 -1.0136871 2.3846283 -2.4447632 c 0 -1.3595276 -0.988739 -2.4566803 -2.3846283 -2.4566803 z" stroke-linecap="round"/>
</g>
		<g transform="matrix(1 0 0 1 -279.3266 -88.58)" clip-path="url(#CLIPPATH_59)">
<clipPath id="CLIPPATH_59">
	<path transform="matrix(1 0 0 1 279.3265 88.58) translate(-480, -270)" id="g2a717c8034b_0_493.0" d="m 0 0 l 960 0 l 0 540 l -960 0 l 0 -540 z" stroke-linecap="round"/>
</clipPath>
<path style="stroke: none; stroke-width: 1; stroke-dasharray: none; stroke-linecap: square; stroke-dashoffset: 0; stroke-linejoin: miter; stroke-miterlimit: 10; is-custom-font: none; font-file-url: none; fill: rgb(255,227,227); fill-rule: evenodd; opacity: 1;" transform=" translate(-200.6735, -181.42)" d="m 200.67346 178.97522 c -1.3958893 0 -2.3846436 1.0971527 -2.3846436 2.444748 c 0 1.4310913 0.9887543 2.4447632 2.3846436 2.4447632 c 1.3144531 0 2.3846283 -1.0136719 2.3846283 -2.4447632 c 0 -1.3475952 -1.0701752 -2.444748 -2.3846283 -2.444748 z" stroke-linecap="round"/>
</g>
		<g transform="matrix(1 0 0 1 -270.9336 113.2144)" clip-path="url(#CLIPPATH_60)">
<clipPath id="CLIPPATH_60">
	<path transform="matrix(1 0 0 1 270.9336 -113.2144) translate(-480, -270)" id="g2a717c8034b_0_493.0" d="m 0 0 l 960 0 l 0 540 l -960 0 l 0 -540 z" stroke-linecap="round"/>
</clipPath>
<path style="stroke: none; stroke-width: 1; stroke-dasharray: none; stroke-linecap: square; stroke-dashoffset: 0; stroke-linejoin: miter; stroke-miterlimit: 10; is-custom-font: none; font-file-url: none; fill: rgb(56,56,56); fill-rule: evenodd; opacity: 1;" transform=" translate(-209.0664, -383.2144)" d="m 190.71637 382.5406 l 0 0.67977905 c 7.898361 0.33392334 16.122437 0.66781616 24.03244 0.66781616 l 12.667618 0 l 0 -0.66781616 c -3.3035736 0.083465576 -6.618805 0.13116455 -9.910751 0.13116455 c -9.026703 0 -17.995255 -0.3100586 -26.789307 -0.8109436 z" stroke-linecap="round"/>
</g>
		<g transform="matrix(1 0 0 1 -155.3984 32.474)" clip-path="url(#CLIPPATH_61)">
<clipPath id="CLIPPATH_61">
	<path transform="matrix(1 0 0 1 155.3984 -32.474) translate(-480, -270)" id="g2a717c8034b_0_493.0" d="m 0 0 l 960 0 l 0 540 l -960 0 l 0 -540 z" stroke-linecap="round"/>
</clipPath>
<path style="stroke: none; stroke-width: 1; stroke-dasharray: none; stroke-linecap: square; stroke-dashoffset: 0; stroke-linejoin: miter; stroke-miterlimit: 10; is-custom-font: none; font-file-url: none; fill: rgb(56,56,56); fill-rule: evenodd; opacity: 1;" transform=" translate(-324.6016, -302.474)" d="m 340.60773 300.864 c -2.8848267 0 -5.95578 0.500885 -9.015076 0.775177 c -0.98876953 0.33389282 -1.6401672 0.33389282 -2.7103577 0.75131226 c -7.5726624 1.0136719 -15.063873 1.0136719 -22.299194 1.0136719 l 0 0.67977905 c 7.5610046 0 15.133667 0 22.299194 -1.0137024 c 1.0701904 -0.33392334 2.0589294 -0.33392334 2.7103577 -0.67974854 c 3.0709229 -0.33392334 6.141876 -0.8467407 9.03833 -0.8467407 c 0.6746826 0 1.3377075 0.023864746 1.9891357 0.09542847 l 0 -0.67977905 c -0.6630554 -0.059631348 -1.3260803 -0.09539795 -2.0123901 -0.09539795 z" stroke-linecap="round"/>
</g>
		<g transform="matrix(1 0 0 1 -110.1003 105.222)" clip-path="url(#CLIPPATH_62)">
<clipPath id="CLIPPATH_62">
	<path transform="matrix(1 0 0 1 110.1003 -105.2219) translate(-480, -270)" id="g2a717c8034b_0_493.0" d="m 0 0 l 960 0 l 0 540 l -960 0 l 0 -540 z" stroke-linecap="round"/>
</clipPath>
<path style="stroke: none; stroke-width: 1; stroke-dasharray: none; stroke-linecap: square; stroke-dashoffset: 0; stroke-linejoin: miter; stroke-miterlimit: 10; is-custom-font: none; font-file-url: none; fill: rgb(0,0,0); fill-opacity: 0; fill-rule: evenodd; opacity: 1;" transform=" translate(-369.8997, -375.2219)" d="m 210.15453 367.2093 l 263.19983 -117.02965 l 56.290527 133.05492 l -263.19986 117.02966 z" stroke-linecap="round"/>
</g>
		<g transform="matrix(1 0 0 1 -115.2838 106.7179)" clip-path="url(#CLIPPATH_63)">
<clipPath id="CLIPPATH_63">
	<path transform="matrix(1 0 0 1 115.2838 -106.7179) translate(-480, -270)" id="g2a717c8034b_0_493.0" d="m 0 0 l 960 0 l 0 540 l -960 0 l 0 -540 z" stroke-linecap="round"/>
</clipPath>
<path style="stroke: none; stroke-width: 1; stroke-dasharray: none; stroke-linecap: square; stroke-dashoffset: 0; stroke-linejoin: miter; stroke-miterlimit: 10; is-custom-font: none; font-file-url: none; fill: rgb(14,42,71); fill-rule: nonzero; opacity: 1;" transform=" translate(-364.7162, -376.7179)" d="m 253.84718 387.04733 q -4.820648 5.084656 -5.938431 11.46405 q -1.1035156 6.3730774 1.8557129 13.367859 q 1.3822021 3.2670898 2.5380402 4.275055 q 1.155838 1.0079651 1.2288971 1.1806946 q -4.7400513 2.107605 -7.9075165 1.1562195 q -3.153183 -0.9577637 -5.101654 -5.563385 q -2.3929596 -5.6562805 -0.05467224 -13.04007 q 2.346466 -7.4045105 8.127457 -13.9079895 q 5.7892 -6.5242004 12.98494 -9.723724 q 1.2278442 -0.5459595 3.585266 -1.388977 l 5.537903 28.847656 l 12.8923645 -5.732483 l -5.537903 -28.847656 l 12.635376 -5.6181946 l 14.035919 72.350464 l -12.635376 5.618225 l -7.041046 -36.37018 l -12.8923645 5.732483 l 7.041046 36.37018 l -12.635345 5.6181946 l -12.718613 -65.78842 z m 63.749344 -26.44754 l -1.0565186 0.4697876 q -7.7953796 3.466156 -10.48764 9.331543 q -2.678009 5.8590393 1.5538025 15.861877 q 1.3822021 3.2670898 2.538025 4.275055 q 1.1558533 1.0079651 1.2349854 1.1950684 q -4.7400513 2.1076355 -7.907501 1.1562195 q -3.1592712 -0.97213745 -5.101654 -5.5633545 q -2.6608887 -6.289551 -1.7771912 -12.821381 q 0.883667 -6.5317993 6.2483215 -12.696228 q 5.3585815 -6.178833 15.709595 -10.781342 q 5.7822876 -2.571045 12.90033 -4.470642 q 6.033203 -1.5368958 10.416321 -3.4858398 q 5.610962 -2.494873 9.394226 -6.3829346 q 2.2499695 5.8395386 0.68600464 9.801056 q -1.5557861 3.9407349 -6.8954773 6.3150024 q -2.812622 1.2506104 -5.8139954 2.0550537 q -2.987091 0.7980652 -8.614227 2.0518494 l 11.907684 62.147583 l -12.621094 5.6118774 l -12.313995 -64.07025 z m 43.1828 -21.834259 q -5.7297974 5.1810913 -7.2211 11.880463 q -1.4913025 6.699402 1.6871338 14.212311 q 1.4248047 3.367859 2.562378 4.3326416 q 1.1375732 0.9647827 1.2471924 1.2238464 q -9.380157 4.1708374 -12.783905 -3.8746338 q -2.3198853 -5.483551 -0.4890747 -12.863983 q 1.8308105 -7.380432 6.8819885 -13.764618 q 5.0593567 -6.4048767 11.555511 -9.293335 q 3.2409363 -1.4410706 7.1911316 -1.7268982 l 17.68866 47.504578 l -0.4131775 -55.185974 l 12.635376 -5.618225 l 18.325409 69.177795 l -12.635376 5.618225 l -11.188446 -42.20395 l 0.30917358 47.04132 l -12.021454 5.3452454 l -15.116364 -40.66263 l 2.223999 46.39511 l -7.010132 3.1170044 l -3.4289246 -70.6543 z m 124.962616 42.88086 q -3.9405212 1.7521362 -8.722778 1.1938477 q -4.761902 -0.55026245 -12.614868 -2.6330872 q -5.8809814 -1.5916748 -9.927155 -2.3746643 q -4.025757 -0.7749634 -8.305817 -0.6673889 q -4.2739563 0.12197876 -8.043152 1.7979431 q -1.3135071 0.5840454 -1.9765625 0.9814453 l -12.856964 -67.07779 q -4.8571777 4.998291 -5.993225 11.334534 q -1.1217651 6.3298645 1.8678894 13.396606 q 1.3822021 3.2671204 2.5441284 4.289459 q 1.1558228 1.0079651 1.2289124 1.1806946 q -4.7400513 2.107605 -7.9075317 1.1562195 q -3.1592712 -0.97216797 -5.101654 -5.563385 q -2.3929443 -5.6562805 -0.060760498 -13.054443 q 2.346466 -7.404541 8.141754 -13.914337 q 5.7891846 -6.524231 12.970642 -9.717407 q 1.2278442 -0.54592896 3.5913696 -1.3745728 l 13.352051 69.49106 q 2.7175293 -0.47302246 5.8070984 -0.42745972 q 3.1038208 0.03918457 7.6459045 0.43069458 q 7.005768 0.5614319 11.726074 0.4119873 q 4.734619 -0.15582275 9.117737 -2.1047363 q 3.9548035 -1.7584839 6.7642517 -4.700592 q 2.0343628 6.773346 1.1924438 11.559479 q -0.84191895 4.786133 -4.439789 6.385895 z" stroke-linecap="round"/>
</g>
		<g transform="matrix(1 0 0 1 -73.9831 -123.1202)" clip-path="url(#CLIPPATH_64)">
<clipPath id="CLIPPATH_64">
	<path transform="matrix(1 0 0 1 73.9831 123.1202) translate(-480, -270)" id="g2a717c8034b_0_493.0" d="m 0 0 l 960 0 l 0 540 l -960 0 l 0 -540 z" stroke-linecap="round"/>
</clipPath>
<path style="stroke: none; stroke-width: 1; stroke-dasharray: none; stroke-linecap: square; stroke-dashoffset: 0; stroke-linejoin: miter; stroke-miterlimit: 10; is-custom-font: none; font-file-url: none; fill: rgb(0,0,0); fill-opacity: 0; fill-rule: evenodd; opacity: 1;" transform=" translate(-406.0169, -146.8798)" d="m 334.9301 -0.00084532035 l 228.02252 178.51213 l -85.849 115.249084 l -228.02252 -178.51215 z" stroke-linecap="round"/>
</g>
		<g transform="matrix(1 0 0 1 -114.2594 -161.5746)" clip-path="url(#CLIPPATH_65)">
<clipPath id="CLIPPATH_65">
	<path transform="matrix(1 0 0 1 114.2595 161.5746) translate(-480, -270)" id="g2a717c8034b_0_493.0" d="m 0 0 l 960 0 l 0 540 l -960 0 l 0 -540 z" stroke-linecap="round"/>
</clipPath>
<path style="stroke: none; stroke-width: 1; stroke-dasharray: none; stroke-linecap: square; stroke-dashoffset: 0; stroke-linejoin: miter; stroke-miterlimit: 10; is-custom-font: none; font-file-url: none; fill: rgb(14,42,71); fill-rule: nonzero; opacity: 1;" transform=" translate(-365.7405, -108.4254)" d="m 298.6408 102.00666 q -8.538422 -6.6844788 -9.281403 -14.211426 q -0.7307129 -7.5173187 6.8414 -17.682564 q 6.0221863 -8.084572 15.6414795 -15.297756 q 9.628601 -7.2257195 20.516571 -9.238853 q 10.909576 -2.016037 20.050842 5.1404037 q 5.6717834 4.4402657 7.245941 9.700882 q 1.5864563 5.270252 -2.3069763 10.497021 q -2.4649048 3.3090286 -5.166565 4.1903534 q -2.689392 0.8909607 -5.408386 -1.2376709 q -2.7190247 -2.1286316 -2.8122559 -5.37661 q 1.8668823 0.3701172 4.4748535 -0.88222504 q 2.6079712 -1.2523422 4.2698975 -3.4834366 q 1.5498962 -2.080677 1.4259338 -4.2414665 q -0.11462402 -2.1733246 -2.526062 -4.061161 q -4.0108337 -3.1399727 -11.804474 -0.39109802 q -7.7842712 2.7363396 -16.322784 9.46611 q -8.529175 6.7172394 -14.383301 14.576195 q -4.36026 5.8534775 -4.7008667 10.468353 q -0.31900024 4.611969 4.8237305 8.638069 q 4.453766 3.4867172 9.715393 4.4507446 q 5.283264 0.9611206 10.756592 -0.6078415 l 1.1558838 2.1352081 q -5.495697 3.3770752 -11.607849 3.7117233 q -6.1121216 0.33465576 -11.477142 -1.4842148 q -5.343384 -1.8217773 -9.120453 -4.77874 z m 37.976288 29.988503 q -4.761322 -3.7275238 -7.13031 -8.261024 q -2.3596497 -4.546036 -2.068695 -9.120407 q 0.31262207 -4.5772705 3.3003845 -8.588219 q 2.5209045 -3.3842392 5.9746094 -5.0659027 q 3.465973 -1.6720352 7.044922 -1.4300079 q 3.5912476 0.25165558 6.470215 2.5055008 q 2.645172 2.070839 3.4453735 4.8404083 q 0.8218689 2.7666702 -0.4968872 5.504547 q -3.9370422 -3.0821762 -7.864868 -2.8035736 q -3.9154968 0.28823853 -6.6138306 3.9106293 q -2.4648743 3.3090286 -1.9902649 6.8555984 q 0.4746399 3.5465622 3.7226868 6.089363 q 3.9985352 3.130333 8.642242 2.439827 q 4.653015 -0.7030487 7.743469 -4.8518753 q 2.6983032 -3.6223907 3.1386719 -8.397308 q 0.45266724 -4.7652817 -0.039093018 -12.472588 q -0.5150757 -7.963669 -0.04537964 -13.01329 q 0.47903442 -5.062149 3.5134583 -9.135765 q 2.9877625 -4.010948 7.5585938 -5.492714 q 4.5708313 -1.4817581 9.79422 -0.30953217 q 5.245056 1.1693268 10.0802 4.954628 q 6.127014 4.796646 7.6085815 10.59993 q 1.4908752 5.790756 -2.1784668 10.716705 q -2.4088745 3.2338257 -5.4898376 3.9967957 q -3.0809937 0.76297 -5.6523743 -1.2500839 q -2.8789368 -2.2538452 -2.8397217 -5.993431 q 2.25177 0.036445618 4.392578 -1.0855408 q 2.1530762 -1.1123657 3.5909424 -3.042633 q 1.8299866 -2.4567032 1.4829102 -5.0501328 q -0.34707642 -2.593422 -2.832306 -4.539055 q -3.0266113 -2.369423 -6.5921326 -1.6881332 q -3.5655212 0.6812973 -6.095764 4.078064 q -2.287506 3.0708847 -2.532135 7.0862274 q -0.23236084 4.024971 0.37112427 11.085503 q 0.561676 5.678459 0.62384033 9.517273 q 0.08383179 3.8358994 -0.92459106 7.987526 q -0.99609375 4.161255 -3.694397 7.783638 q -3.669342 4.925949 -9.339203 6.837158 q -5.6605225 1.8986816 -12.038422 0.5766907 q -6.368561 -1.3345337 -12.040344 -5.7747955 z m 43.086792 33.73137 q -4.7613525 -3.7275238 -7.1303406 -8.261017 q -2.3596497 -4.546036 -2.0686646 -9.120407 q 0.31262207 -4.577286 3.300354 -8.588226 q 2.520935 -3.3842468 5.9746094 -5.0659027 q 3.465973 -1.6720428 7.044922 -1.4300079 q 3.591278 0.25164795 6.470215 2.5054932 q 2.6452026 2.0708466 3.445404 4.8404236 q 0.8218384 2.7666626 -0.49691772 5.504547 q -3.9370422 -3.0821838 -7.8648376 -2.8035736 q -3.9155273 0.28823853 -6.6138306 3.910614 q -2.4649048 3.3090363 -1.9902649 6.855606 q 0.4746399 3.5465698 3.7226868 6.0893555 q 3.9985352 3.1303406 8.642212 2.4398346 q 4.653015 -0.7030487 7.743469 -4.851883 q 2.6983337 -3.6223755 3.1387024 -8.397293 q 0.45266724 -4.7652893 -0.039123535 -12.472595 q -0.51504517 -7.963669 -0.04537964 -13.01329 q 0.47903442 -5.062149 3.5134583 -9.135765 q 2.9877625 -4.010948 7.5585938 -5.492714 q 4.5708313 -1.4817581 9.7942505 -0.30953217 q 5.2450256 1.1693268 10.0802 4.954628 q 6.1269836 4.796646 7.608551 10.59993 q 1.4909058 5.790756 -2.1784363 10.716705 q -2.4088745 3.2338257 -5.489868 3.9967957 q -3.0809937 0.76297 -5.6523743 -1.2500763 q -2.8789368 -2.2538452 -2.8397217 -5.9934387 q 2.25177 0.036453247 4.392578 -1.0855408 q 2.1531067 -1.1123657 3.5909424 -3.042633 q 1.8300171 -2.4567032 1.4829407 -5.0501328 q -0.34707642 -2.593422 -2.8323364 -4.539055 q -3.0265808 -2.369423 -6.592102 -1.6881332 q -3.5655518 0.6812973 -6.0957947 4.078064 q -2.287506 3.0708847 -2.532135 7.0862274 q -0.23233032 4.024971 0.37112427 11.085503 q 0.56170654 5.678467 0.62387085 9.517273 q 0.08380127 3.835907 -0.92459106 7.9875183 q -0.99612427 4.161255 -3.6944275 7.7836456 q -3.669342 4.925949 -9.339172 6.837158 q -5.6605225 1.8986816 -12.038422 0.5766907 q -6.3685913 -1.3345337 -12.040344 -5.7747955 z" stroke-linecap="round"/>
</g>
</g>
</g>
</svg>